<?xml version="1.0" encoding="UTF-8"?>
<svg version="1.1" xmlns="http://www.w3.org/2000/svg" width="3840" height="2160">
<path d="M0 0 C2.22639003 -0.00461629 4.452777 -0.01097407 6.67915767 -0.01890898 C12.75958116 -0.03552511 18.83975181 -0.02739105 24.92017591 -0.0149641 C30.81600639 -0.00681852 36.71178431 -0.01752027 42.60760748 -0.02755357 C55.40109492 -0.04855669 68.19450217 -0.046815 80.98799713 -0.03523792 C92.1834733 -0.0251572 103.37892017 -0.02255749 114.57439995 -0.02732849 C115.31836416 -0.02763403 116.06232837 -0.02793957 116.82883695 -0.02825437 C119.84917191 -0.02949982 122.86950687 -0.03077343 125.8898418 -0.03209343 C154.19490029 -0.04431621 182.49990786 -0.03325636 210.80495849 -0.01170584 C235.92866964 0.00727709 261.05229968 0.00557491 286.17601013 -0.0135498 C314.43234451 -0.03498748 342.68863394 -0.04345117 370.94497532 -0.03110075 C373.95934895 -0.02981796 376.97372259 -0.0285666 379.98809624 -0.02732849 C381.10134037 -0.02685403 381.10134037 -0.02685403 382.23707429 -0.02636998 C393.42367227 -0.02182818 404.61023767 -0.02712602 415.79683113 -0.0372467 C428.52110476 -0.04870147 441.24528601 -0.04578663 453.96954817 -0.02412373 C460.4585017 -0.01362878 466.94729084 -0.00946523 473.43624306 -0.02272034 C479.38191322 -0.03468179 485.32726735 -0.02801953 491.27290904 -0.00681013 C493.41803698 -0.00236003 495.56319188 -0.00457427 497.70830233 -0.01431328 C521.93536949 -0.11582716 544.76200973 6.00815285 563.08152771 22.80871582 C579.35861377 39.74778864 589.05134358 59.23680919 588.96964121 82.7662586 C588.97212922 84.11829202 588.97549218 85.47032407 588.97964593 86.8223534 C588.98854088 90.54544782 588.98499125 94.26844266 588.97944236 97.99153974 C588.97559673 102.05415135 588.98336231 106.11674367 588.98963594 110.17934996 C588.99906653 117.32964965 589.00103156 124.47992165 588.99817926 131.63022654 C588.99394059 142.33465756 589.00115858 153.03905987 589.0106088 163.74348646 C589.02636507 181.98586456 589.03253337 200.22823483 589.03350067 218.4706192 C589.03450487 236.96331031 589.03979282 255.45599265 589.05031586 273.94868088 C589.05130626 275.69928219 589.05130626 275.69928219 589.05231667 277.48524918 C589.05501661 282.23838199 589.05774194 286.99151479 589.06050088 291.74464757 C589.09079574 344.02984788 589.10438646 396.31504598 589.11334481 448.60025369 C589.11351488 449.59227166 589.11351488 449.59227166 589.11368838 450.6043304 C589.11426143 453.94956872 589.11483149 457.29480705 589.11539662 460.64004537 C589.12014711 488.6686155 589.12756651 516.69718471 589.13547081 544.72575412 C589.13925599 558.14907559 589.14291299 571.57239709 589.14653921 584.9957186 C589.14680978 585.99712523 589.14680978 585.99712523 589.14708582 587.0187623 C589.15575829 619.14976907 589.16361494 651.28077602 589.17053986 683.41178322 C589.17076147 684.43989855 589.17076147 684.43989855 589.17098757 685.4887839 C589.18037749 729.16953238 589.18602355 772.85028055 589.18931342 816.53102988 C589.18958457 820.11228679 589.18986263 823.6935437 589.1901405 827.2748006 C589.19058544 833.01641741 589.19102818 838.75803422 589.19146826 844.49965102 C589.19155007 845.56687623 589.19155007 845.56687623 589.19163353 846.65566154 C589.19174376 848.09362628 589.19185398 849.53159101 589.19196419 850.96955574 C589.19273743 861.05645524 589.19351331 871.14335473 589.19430246 881.23025423 C589.19458467 884.83955332 589.19486482 888.4488524 589.19514025 892.05815149 C589.20034848 960.22326184 589.2110074 1028.38836309 589.24290466 1096.5534668 C589.24324025 1097.27101544 589.24357584 1097.98856408 589.24392159 1098.72785663 C589.25442298 1121.14722529 589.26557169 1143.56659363 589.27684021 1165.98596191 C589.28840224 1188.98995133 589.29986339 1211.99394078 589.31075287 1234.99793053 C589.31108848 1235.70624422 589.3114241 1236.41455791 589.31176988 1237.14433566 C589.33275767 1281.50827461 589.34647985 1325.87221104 589.35248566 1370.23615456 C589.35262609 1371.26403099 589.35262609 1371.26403099 589.35276936 1372.31267261 C589.35687078 1402.40810439 589.35935886 1432.50353611 589.36006148 1462.59896816 C589.36034801 1474.70667772 589.36082533 1486.81438726 589.36138959 1498.92209681 C589.36148065 1500.92960317 589.36156396 1502.93710953 589.36164581 1504.94461589 C589.3629378 1535.64646747 589.36884923 1566.34830984 589.38856697 1597.05015516 C589.38899171 1597.71209716 589.38941646 1598.37403915 589.38985407 1599.05603999 C589.39713744 1610.36535275 589.40484175 1621.67466522 589.41256079 1632.98397769 C589.44178184 1675.96826025 589.45188321 1718.95250314 589.4357217 1761.93679388 C589.43349092 1767.87558841 589.43146961 1773.814383 589.42957306 1779.75317764 C589.42919312 1780.91735274 589.42881319 1782.08152783 589.42842174 1783.28098096 C589.4229528 1801.72029337 589.43764361 1820.15953246 589.4607198 1838.59882892 C589.48298801 1856.72719126 589.48387733 1874.8554499 589.46197942 1892.98381384 C589.44978118 1903.61364144 589.45398999 1914.24315615 589.48248337 1924.87295431 C589.49977199 1931.93491129 589.49524814 1938.99663828 589.47308595 1946.05858107 C589.46113467 1950.06047725 589.45832673 1954.0617606 589.48245567 1958.06361578 C589.63878892 1985.81466969 585.03856064 2008.21551369 565.25340271 2028.97180176 C558.14673321 2036.06494333 550.31736728 2041.58686815 541.27684021 2045.94543457 C540.33107117 2046.40430054 540.33107117 2046.40430054 539.36619568 2046.87243652 C524.41896527 2053.59403665 510.23062893 2054.08253136 494.1086731 2054.01129913 C491.71494895 2054.01547623 489.32122734 2054.02140461 486.92751133 2054.0289166 C481.72406848 2054.04122967 476.52077799 2054.04121051 471.31733859 2054.03018242 C463.5276181 2054.01374785 455.7380327 2054.0205411 447.948309 2054.03171299 C434.66953962 2054.05008127 421.3908316 2054.04952846 408.11205673 2054.03858948 C394.65992871 2054.02757527 381.20784106 2054.02527046 367.7557106 2054.03353882 C366.90531001 2054.03405551 366.05490942 2054.0345722 365.17873912 2054.03510455 C361.7150552 2054.03723769 358.25137132 2054.03943253 354.78768749 2054.04170565 C322.54290394 2054.06285211 290.29814745 2054.06430261 258.05335999 2054.05311584 C257.09830162 2054.05278466 256.14324325 2054.05245348 255.15924372 2054.05211226 C253.72436014 2054.05161469 253.72436014 2054.05161469 252.26048902 2054.05110706 C223.11671536 2054.04101411 193.97295289 2054.03840886 164.82917786 2054.04319763 C162.87752923 2054.04350755 160.92588061 2054.04381617 158.97423198 2054.04412351 C151.13135186 2054.04536538 143.28847175 2054.04664005 135.44559164 2054.04796257 C113.52153833 2054.05163059 91.59748498 2054.053913 69.6734314 2054.05510712 C68.17588116 2054.05518899 68.17588116 2054.05518899 66.64807739 2054.05527252 C34.83610262 2054.05690961 3.02413175 2054.05240216 -28.7878418 2054.0437088 C-30.33551532 2054.04328731 -30.33551532 2054.04328731 -31.91445497 2054.0428573 C-48.66989893 2054.03827751 -65.4253428 2054.03339966 -82.18078666 2054.0284966 C-148.63470048 2054.00907128 -215.08858205 2054.0099729 -281.54249573 2054.02941895 C-298.28948971 2054.03430371 -315.03648371 2054.03914792 -331.78347778 2054.0437088 C-332.81465323 2054.04399059 -333.84582867 2054.04427239 -334.90825186 2054.04456272 C-366.68708541 2054.05318753 -398.46591629 2054.05684454 -430.24475098 2054.05510712 C-431.24238454 2054.05505278 -432.2400181 2054.05499844 -433.26788298 2054.05494246 C-455.16758475 2054.05369254 -477.06728624 2054.05115798 -498.96698773 2054.04746511 C-506.8028535 2054.04614854 -514.63871927 2054.04489622 -522.47458506 2054.04366226 C-524.42394175 2054.04335271 -526.37329845 2054.04303779 -528.32265514 2054.04271748 C-557.45862925 2054.03794319 -586.59459076 2054.04200872 -615.7305633 2054.05211226 C-617.16315085 2054.05260904 -617.16315085 2054.05260904 -618.62467957 2054.05311584 C-619.57797586 2054.05344657 -620.53127215 2054.0537773 -621.51345621 2054.05411805 C-653.66527171 2054.06515058 -685.81705477 2054.06109325 -717.96886563 2054.03999287 C-721.42158712 2054.03778346 -724.87430863 2054.03563664 -728.32703018 2054.03353882 C-729.17438583 2054.03301799 -730.02174148 2054.03249716 -730.89477458 2054.03196055 C-744.31051647 2054.02407184 -757.726218 2054.02956303 -771.14195625 2054.04061484 C-784.33437555 2054.05119758 -797.52672678 2054.04747882 -810.71913746 2054.02855849 C-818.45239315 2054.0178905 -826.18546216 2054.01809516 -833.9187089 2054.03448488 C-839.66240243 2054.0454313 -845.40590954 2054.03548463 -851.14957823 2054.01745978 C-853.45685196 2054.01343354 -855.7641496 2054.0160893 -858.07140432 2054.02628353 C-886.10460694 2054.14134729 -908.09862359 2046.42739591 -928.28565979 2026.50793457 C-942.82763124 2011.99737127 -950.46822937 1991.10538189 -950.55538517 1970.86046612 C-950.55141044 1969.45773208 -950.54725156 1968.05499856 -950.5429287 1966.65226555 C-950.54562442 1965.14042076 -950.54919358 1963.62857732 -950.55355316 1962.11673641 C-950.56299701 1957.96087621 -950.5600151 1953.80510383 -950.55499762 1949.64923935 C-950.5517288 1945.12837088 -950.56001536 1940.6075211 -950.56681597 1936.0866586 C-950.57712247 1928.1625897 -950.57995863 1920.23854523 -950.57790375 1912.31447029 C-950.57485545 1900.53085697 -950.58317396 1888.74727071 -950.593653 1876.96366264 C-950.61300392 1854.69365135 -950.61862163 1832.42364925 -950.61976711 1810.15363054 C-950.6206859 1792.95622049 -950.62480103 1775.75881406 -950.63116837 1758.56140518 C-950.63296343 1753.6126347 -950.63474306 1748.66386422 -950.63651812 1743.71509373 C-950.63696022 1742.48484143 -950.63740231 1741.25458912 -950.63785781 1739.98705644 C-950.65016784 1705.37777916 -950.65805877 1670.76850313 -950.65717125 1636.15922356 C-950.65712451 1634.20158377 -950.65712451 1634.20158377 -950.65707683 1632.20439571 C-950.65691062 1625.58951958 -950.65671253 1618.97464344 -950.65650742 1612.3597673 C-950.65646753 1611.0460106 -950.65642764 1609.73225389 -950.65638654 1608.37868637 C-950.65630566 1605.72194936 -950.65622207 1603.06521235 -950.65613575 1600.40847533 C-950.65491023 1559.07344794 -950.66992305 1517.73846099 -950.69728088 1476.40344238 C-950.72799905 1429.97206747 -950.74521353 1383.54071411 -950.74335444 1337.10932839 C-950.74320518 1332.15867178 -950.74310776 1327.20801517 -950.74304581 1322.25735855 C-950.7430225 1321.03836653 -950.74299919 1319.8193745 -950.74297517 1318.56344332 C-950.74291362 1298.94275982 -950.75568789 1279.32210479 -950.77291034 1259.70142975 C-950.78986043 1239.98324396 -950.79184553 1220.26509985 -950.77869169 1200.54691081 C-950.77129837 1188.83227819 -950.774972 1177.11777215 -950.79457637 1165.40315293 C-950.80656895 1157.57568038 -950.8039933 1149.74829959 -950.78963538 1141.92083126 C-950.78186634 1137.46252798 -950.78033802 1133.00446977 -950.79655008 1128.54618369 C-950.81119471 1124.48328429 -950.80713429 1120.42083217 -950.78870235 1116.3579521 C-950.78528431 1114.90409319 -950.78843536 1113.45019849 -950.79930476 1111.99637619 C-950.8912283 1098.80878192 -948.40729269 1086.6693492 -942.59815979 1074.75793457 C-942.26074768 1074.05185059 -941.92333557 1073.3457666 -941.57569885 1072.61828613 C-938.33085444 1066.10781606 -934.16455816 1060.90040118 -929.28565979 1055.50793457 C-928.66690979 1054.69453613 -928.04815979 1053.8811377 -927.41065979 1053.04309082 C-914.34561208 1037.45629677 -893.90863946 1029.37212198 -874.28565979 1026.50793457 C-872.21370589 1026.42203684 -870.13940928 1026.38414665 -868.06567574 1026.38488674 C-866.8310576 1026.38289569 -865.59643946 1026.38090464 -864.32440865 1026.37885326 C-862.96254401 1026.38170592 -861.60067957 1026.38465151 -860.23881531 1026.38768005 C-858.78583186 1026.38724384 -857.33284848 1026.386368 -855.87986553 1026.38509089 C-851.89145914 1026.38285584 -847.90307963 1026.38685369 -843.91467667 1026.39186895 C-839.61208345 1026.39618745 -835.30949175 1026.39472603 -831.00689697 1026.39396667 C-823.55376451 1026.39344233 -816.10064079 1026.39657981 -808.64751053 1026.40220451 C-797.87153547 1026.41033159 -787.09556465 1026.41293598 -776.31958686 1026.41419251 C-758.83627023 1026.41638112 -741.35295826 1026.42303606 -723.86964417 1026.43249512 C-706.88624597 1026.44167415 -689.90284903 1026.44875258 -672.91944885 1026.45300293 C-671.34916019 1026.45339701 -671.34916019 1026.45339701 -669.74714853 1026.45379906 C-664.49536333 1026.4551041 -659.24357813 1026.45636781 -653.99179292 1026.45761096 C-610.42307864 1026.46797765 -566.85436946 1026.48559081 -523.28565979 1026.50793457 C-523.28736853 1025.13637766 -523.28736853 1025.13637766 -523.28911179 1023.73711252 C-523.35627923 969.51664873 -523.40773626 915.29618935 -523.43885578 861.07569227 C-523.4426078 854.56205812 -523.44649077 848.04842406 -523.45045471 841.53479004 C-523.45124164 840.23806958 -523.45202857 838.94134912 -523.45283935 837.6053341 C-523.46588516 816.62255189 -523.48953447 795.63979439 -523.51711818 774.65702683 C-523.54519532 753.11891476 -523.56184094 731.58081561 -523.56792527 710.04268599 C-523.57203692 696.75778729 -523.58501266 683.47295845 -523.60940919 670.18808126 C-523.62529487 661.07207893 -523.63005373 651.95611259 -523.62616392 642.84009743 C-523.6242468 637.58452585 -523.62713851 632.32907616 -523.64327621 627.07352638 C-523.65796967 622.25288984 -523.65855138 617.43245616 -523.64835647 612.61180991 C-523.64709809 610.87667393 -523.65082314 609.14152483 -523.66030934 607.40641433 C-523.79427641 581.36825172 -517.03222766 557.9795785 -498.78102112 538.78430176 C-493.14516364 533.10121014 -487.16372386 528.60436285 -480.28565979 524.50793457 C-479.46968323 524.02066895 -478.65370667 523.53340332 -477.81300354 523.03137207 C-466.69035241 516.97797597 -453.55278676 513.38039198 -440.92701054 513.38488674 C-439.06687166 513.38190017 -439.06687166 513.38190017 -437.16915423 513.37885326 C-435.8063016 513.38170574 -434.44344917 513.38465132 -433.08059692 513.38768005 C-431.62262562 513.38724371 -430.16465439 513.38636764 -428.70668358 513.38509089 C-424.70913497 513.38285831 -420.71161324 513.38685029 -416.71406806 513.39186895 C-412.39990403 513.39619102 -408.0857415 513.39472578 -403.77157593 513.39396667 C-396.29990849 513.39344256 -388.82824979 513.39657768 -381.35658455 513.40220451 C-370.5538364 513.41033465 -359.75109248 513.41293629 -348.9483416 513.41419251 C-331.42121154 513.41638064 -313.89408615 513.42303428 -296.36695862 513.43249512 C-279.34189375 513.44167539 -262.31683015 513.44875322 -245.29176331 513.45300293 C-244.24217993 513.45326565 -243.19259655 513.45352838 -242.11120761 513.45379906 C-236.84570898 513.45510411 -231.58021034 513.45636781 -226.31471169 513.45761096 C-182.63835783 513.46797616 -138.96200905 513.48558801 -95.28565979 513.50793457 C-95.28641923 512.58781247 -95.28717867 511.66769038 -95.28796113 510.71968579 C-95.33279747 456.18215034 -95.3670344 401.6446166 -95.38779045 347.10706641 C-95.39029185 340.55823467 -95.3928805 334.00940297 -95.39552307 327.46057129 C-95.39631 325.50494489 -95.39631 325.50494489 -95.39711283 323.50981089 C-95.40581472 302.40146975 -95.42158352 281.29313951 -95.43996538 260.18480483 C-95.45867041 238.52466987 -95.4697778 216.86454062 -95.47383678 195.20439792 C-95.47658058 181.83966002 -95.48524582 168.47495293 -95.50149272 155.11022452 C-95.51206703 145.94473037 -95.51525939 136.77925214 -95.51266254 127.61375234 C-95.51138196 122.32629886 -95.51334105 117.03889921 -95.52407074 111.75145531 C-95.53383075 106.90639164 -95.53427685 102.0614178 -95.52745758 97.21634993 C-95.52661523 95.46782856 -95.52912889 93.71930149 -95.53542615 91.97079125 C-95.62542702 65.42766165 -88.41385629 42.81114337 -69.28565979 23.50793457 C-62.57492115 17.13156152 -55.23561319 12.10549342 -46.91065979 8.07043457 C-46.28860657 7.76460449 -45.66655334 7.45877441 -45.02565002 7.14367676 C-30.34891135 0.50966598 -15.80385743 -0.07183256 0 0 Z " fill="#EEC231" transform="translate(2103.285659790039,52.4920654296875)"/>
<path d="M0 0 C2.22639003 -0.00461629 4.452777 -0.01097407 6.67915767 -0.01890898 C12.75958116 -0.03552511 18.83975181 -0.02739105 24.92017591 -0.0149641 C30.81600639 -0.00681852 36.71178431 -0.01752027 42.60760748 -0.02755357 C55.40109492 -0.04855669 68.19450217 -0.046815 80.98799713 -0.03523792 C92.1834733 -0.0251572 103.37892017 -0.02255749 114.57439995 -0.02732849 C115.69034626 -0.0277868 115.69034626 -0.0277868 116.82883695 -0.02825437 C119.84917191 -0.02949982 122.86950687 -0.03077343 125.8898418 -0.03209343 C154.19490029 -0.04431621 182.49990786 -0.03325636 210.80495849 -0.01170584 C235.92866964 0.00727709 261.05229968 0.00557491 286.17601013 -0.0135498 C314.43234451 -0.03498748 342.68863394 -0.04345117 370.94497532 -0.03110075 C373.95934895 -0.02981796 376.97372259 -0.0285666 379.98809624 -0.02732849 C381.10134037 -0.02685403 381.10134037 -0.02685403 382.23707429 -0.02636998 C393.42367227 -0.02182818 404.61023767 -0.02712602 415.79683113 -0.0372467 C428.52110476 -0.04870147 441.24528601 -0.04578663 453.96954817 -0.02412373 C460.4585017 -0.01362878 466.94729084 -0.00946523 473.43624306 -0.02272034 C479.38191322 -0.03468179 485.32726735 -0.02801953 491.27290904 -0.00681013 C493.41803698 -0.00236003 495.56319188 -0.00457427 497.70830233 -0.01431328 C521.93536949 -0.11582716 544.76200973 6.00815285 563.08152771 22.80871582 C579.35861377 39.74778864 589.05134358 59.23680919 588.96964121 82.7662586 C588.97212922 84.11829202 588.97549218 85.47032407 588.97964593 86.8223534 C588.98854088 90.54544782 588.98499125 94.26844266 588.97944236 97.99153974 C588.97559673 102.05415135 588.98336231 106.11674367 588.98963594 110.17934996 C588.99906653 117.32964965 589.00103156 124.47992165 588.99817926 131.63022654 C588.99394059 142.33465756 589.00115858 153.03905987 589.0106088 163.74348646 C589.02636507 181.98586456 589.03253337 200.22823483 589.03350067 218.4706192 C589.03450487 236.96331031 589.03979282 255.45599265 589.05031586 273.94868088 C589.05097612 275.11574842 589.05163639 276.28281596 589.05231667 277.48524918 C589.05501661 282.23838199 589.05774194 286.99151479 589.06050088 291.74464757 C589.09079574 344.02984788 589.10438646 396.31504598 589.11334481 448.60025369 C589.11351488 449.59227166 589.11351488 449.59227166 589.11368838 450.6043304 C589.11426143 453.94956872 589.11483149 457.29480705 589.11539662 460.64004537 C589.12014711 488.6686155 589.12756651 516.69718471 589.13547081 544.72575412 C589.13925599 558.14907559 589.14291299 571.57239709 589.14653921 584.9957186 C589.14680978 585.99712523 589.14680978 585.99712523 589.14708582 587.0187623 C589.15575829 619.14976907 589.16361494 651.28077602 589.17053986 683.41178322 C589.17076147 684.43989855 589.17076147 684.43989855 589.17098757 685.4887839 C589.18037749 729.16953238 589.18602355 772.85028055 589.18931342 816.53102988 C589.18958457 820.11228679 589.18986263 823.6935437 589.1901405 827.2748006 C589.19058544 833.01641741 589.19102818 838.75803422 589.19146826 844.49965102 C589.19155007 845.56687623 589.19155007 845.56687623 589.19163353 846.65566154 C589.19174376 848.09362628 589.19185398 849.53159101 589.19196419 850.96955574 C589.19273743 861.05645524 589.19351331 871.14335473 589.19430246 881.23025423 C589.19458467 884.83955332 589.19486482 888.4488524 589.19514025 892.05815149 C589.20034848 960.22326184 589.2110074 1028.38836309 589.24290466 1096.5534668 C589.24324025 1097.27101544 589.24357584 1097.98856408 589.24392159 1098.72785663 C589.25442298 1121.14722529 589.26557169 1143.56659363 589.27684021 1165.98596191 C589.28840224 1188.98995133 589.29986339 1211.99394078 589.31075287 1234.99793053 C589.31108848 1235.70624422 589.3114241 1236.41455791 589.31176988 1237.14433566 C589.33275767 1281.50827461 589.34647985 1325.87221104 589.35248566 1370.23615456 C589.35262609 1371.26403099 589.35262609 1371.26403099 589.35276936 1372.31267261 C589.35687078 1402.40810439 589.35935886 1432.50353611 589.36006148 1462.59896816 C589.36034801 1474.70667772 589.36082533 1486.81438726 589.36138959 1498.92209681 C589.36148065 1500.92960317 589.36156396 1502.93710953 589.36164581 1504.94461589 C589.3629378 1535.64646747 589.36884923 1566.34830984 589.38856697 1597.05015516 C589.38899171 1597.71209716 589.38941646 1598.37403915 589.38985407 1599.05603999 C589.39713744 1610.36535275 589.40484175 1621.67466522 589.41256079 1632.98397769 C589.44178184 1675.96826025 589.45188321 1718.95250314 589.4357217 1761.93679388 C589.43349092 1767.87558841 589.43146961 1773.814383 589.42957306 1779.75317764 C589.42900316 1781.49944029 589.42900316 1781.49944029 589.42842174 1783.28098096 C589.4229528 1801.72029337 589.43764361 1820.15953246 589.4607198 1838.59882892 C589.48298801 1856.72719126 589.48387733 1874.8554499 589.46197942 1892.98381384 C589.44978118 1903.61364144 589.45398999 1914.24315615 589.48248337 1924.87295431 C589.49977199 1931.93491129 589.49524814 1938.99663828 589.47308595 1946.05858107 C589.46113467 1950.06047725 589.45832673 1954.0617606 589.48245567 1958.06361578 C589.63878892 1985.81466969 585.03856064 2008.21551369 565.25340271 2028.97180176 C558.14673321 2036.06494333 550.31736728 2041.58686815 541.27684021 2045.94543457 C540.33107117 2046.40430054 540.33107117 2046.40430054 539.36619568 2046.87243652 C527.78940199 2052.07838945 516.23110392 2054.10885012 503.62460423 2054.00012589 C502.27006144 2054.00309402 500.9155216 2054.00781849 499.56099018 2054.01411188 C495.86983577 2054.02626167 492.17912956 2054.01379503 488.48800892 2053.99699934 C484.4608227 2053.98315766 480.43367796 2053.99276551 476.40648264 2053.9993093 C469.35891633 2054.00757448 462.31148558 2054.00108037 455.26393509 2053.98475647 C444.78462053 2053.96055143 434.30539089 2053.95941926 423.82605347 2053.96292442 C406.19560507 2053.96817248 388.56521676 2053.95484312 370.93478584 2053.9308548 C353.48335027 2053.90717098 336.03193973 2053.89178784 318.5804882 2053.88744354 C316.95169103 2053.8870311 316.95169103 2053.8870311 315.28998887 2053.88661033 C309.77522806 2053.88525697 304.26046723 2053.88405144 298.74570637 2053.88290283 C259.70439086 2053.87450552 220.66310802 2053.8475682 181.62181091 2053.80969238 C143.69831007 2053.77294351 105.77481818 2053.74461451 67.8513031 2053.72766113 C66.68193616 2053.72713503 65.51256922 2053.72660892 64.30776691 2053.72606688 C52.56429573 2053.72079271 40.82082449 2053.71568947 29.07735318 2053.71071144 C5.15543997 2053.70056711 -18.76647265 2053.68928211 -42.68838501 2053.67730713 C-43.78822898 2053.67675797 -44.88807294 2053.67620881 -46.02124551 2053.67564301 C-119.44273053 2053.63885241 -192.86419742 2053.57547301 -266.28565979 2053.50793457 C-262.61183924 2051.18371139 -259.47250592 2051.2593033 -255.18732071 2051.26183891 C-254.46852326 2051.25953122 -253.74972582 2051.25722354 -253.00914663 2051.25484592 C-250.58798084 2051.24953017 -248.16707825 2051.25854299 -245.7459259 2051.26742554 C-243.99768249 2051.26655379 -242.24943934 2051.26480339 -240.50119758 2051.2622472 C-235.68733598 2051.25776357 -230.87356295 2051.2657913 -226.05971265 2051.27580333 C-220.87227708 2051.28442091 -215.68484672 2051.28151887 -210.49740601 2051.27999878 C-201.50654665 2051.27894885 -192.51571627 2051.28523668 -183.5248642 2051.29647446 C-170.52552151 2051.31271194 -157.52619286 2051.31793567 -144.52684113 2051.32045044 C-123.43748758 2051.3248303 -102.34814948 2051.33814728 -81.25880432 2051.35705566 C-60.7695473 2051.37540695 -40.28029446 2051.38956713 -19.79103088 2051.39807129 C-18.52858265 2051.39859674 -17.26613441 2051.39912218 -15.96543017 2051.39966355 C-9.63225059 2051.40227358 -3.29907099 2051.40480101 3.03410864 2051.40728736 C55.59419651 2051.42802891 108.15426761 2051.46326234 160.71434021 2051.50793457 C160.73633347 2006.80098509 160.75742112 1962.0940352 160.77781677 1917.38708496 C160.77841556 1916.07481439 160.77841556 1916.07481439 160.77902644 1914.7360333 C160.82177638 1820.99337155 160.85866858 1727.25070965 160.88371277 1633.50804138 C160.88427057 1631.42570927 160.88482838 1629.34337716 160.88538619 1627.26104504 C160.89707699 1583.5521207 160.90794384 1539.84319619 160.91785892 1496.13427141 C160.92284049 1474.17775428 160.92798038 1452.2212372 160.93326998 1430.26472014 C160.93406697 1426.95266727 160.93485944 1423.64061439 160.93565173 1420.32856152 C160.94789132 1369.32904386 160.9635259 1318.32953002 160.98899841 1267.33001709 C160.98954601 1266.2335245 160.9900936 1265.13703191 160.99065779 1264.00731227 C160.99950725 1246.32866274 161.0086417 1228.65001336 161.01781397 1210.97136399 C161.04422937 1160.0499205 161.06853661 1109.12847995 161.07889938 1058.2070303 C161.07922059 1056.63620514 161.07922059 1056.63620514 161.07954829 1055.03364615 C161.08421141 1032.04438489 161.0877908 1009.05512359 161.09034414 986.065862 C161.09139062 976.81567656 161.09259311 967.56549113 161.09384918 958.31530571 C161.09398289 957.30291491 161.0941166 956.29052411 161.09425436 955.2474548 C161.09863966 922.6311738 161.11572231 890.01491461 161.13946904 857.39864242 C161.16333309 824.5413684 161.17473581 791.68411556 161.16883616 758.82683267 C161.16802385 754.28538126 161.16735432 749.74392985 161.16677094 745.20247841 C161.16665141 744.31223143 161.16653189 743.42198444 161.16640875 742.50476028 C161.16488666 728.41316268 161.17681952 714.32160991 161.19437966 700.23002452 C161.21137377 686.3704167 161.21408938 672.51086693 161.20166746 658.6512536 C161.19481609 650.52793647 161.19887324 642.40480356 161.21920822 634.28150797 C161.23309054 628.24573416 161.22602139 622.21017384 161.21090011 616.17439516 C161.20804759 613.75137558 161.21187544 611.32833634 161.22328119 608.90534193 C161.34810573 580.5883779 154.91808877 558.54208892 135.21434021 537.63293457 C115.03035676 518.61971582 90.75994564 514.39578759 64.21751404 514.3026123 C62.47206907 514.29301602 60.72662633 514.28300496 58.98118591 514.27261353 C54.27332419 514.24574783 49.56545264 514.22463986 44.85755754 514.20461154 C39.9261488 514.1826379 34.99476974 514.15530525 30.06338501 514.1285553 C20.73874345 514.07878141 11.41408528 514.03378626 2.08941144 513.99053293 C-8.53218477 513.94102918 -19.15375117 513.88616006 -29.7753185 513.83085334 C-51.61207113 513.71726844 -73.44885225 513.6103789 -95.28565979 513.50793457 C-95.33144052 458.04098295 -95.36668068 402.57403321 -95.38779045 347.10706641 C-95.39029185 340.55823467 -95.3928805 334.00940297 -95.39552307 327.46057129 C-95.39604769 326.15682036 -95.39657231 324.85306943 -95.39711283 323.50981089 C-95.40581472 302.40146975 -95.42158352 281.29313951 -95.43996538 260.18480483 C-95.45867041 238.52466987 -95.4697778 216.86454062 -95.47383678 195.20439792 C-95.47658058 181.83966002 -95.48524582 168.47495293 -95.50149272 155.11022452 C-95.51206703 145.94473037 -95.51525939 136.77925214 -95.51266254 127.61375234 C-95.51138196 122.32629886 -95.51334105 117.03889921 -95.52407074 111.75145531 C-95.53383075 106.90639164 -95.53427685 102.0614178 -95.52745758 97.21634993 C-95.52661523 95.46782856 -95.52912889 93.71930149 -95.53542615 91.97079125 C-95.62542702 65.42766165 -88.41385629 42.81114337 -69.28565979 23.50793457 C-62.57492115 17.13156152 -55.23561319 12.10549342 -46.91065979 8.07043457 C-46.28860657 7.76460449 -45.66655334 7.45877441 -45.02565002 7.14367676 C-30.34891135 0.50966598 -15.80385743 -0.07183256 0 0 Z " fill="#D6950F" transform="translate(2103.285659790039,52.4920654296875)"/>
<path d="M0 0 C0.89895555 -0.00205263 1.79791109 -0.00410527 2.72410771 -0.0062201 C5.74614974 -0.0118891 8.76814619 -0.01043296 11.7901926 -0.00901413 C13.97495007 -0.01159783 16.15970707 -0.014611 18.34446341 -0.01801753 C24.35618615 -0.02609037 30.36789696 -0.02787726 36.37962449 -0.028615 C42.86044232 -0.03046509 49.34125396 -0.03801226 55.82206821 -0.04475021 C70.73719959 -0.05931376 85.65232968 -0.06486066 100.56746688 -0.06944216 C107.94060847 -0.07177895 115.3137493 -0.07538172 122.68689029 -0.07913754 C147.93386028 -0.09197327 173.18082985 -0.10269185 198.42780304 -0.10614014 C200.0124671 -0.10636177 201.59713116 -0.10658355 203.18179521 -0.10680549 C204.77025672 -0.10702613 206.35871823 -0.10724661 207.94717973 -0.10746694 C211.13382876 -0.10790948 214.32047778 -0.1083566 217.50712681 -0.10880661 C218.29722957 -0.108916 219.08733234 -0.10902539 219.90137762 -0.1091381 C245.51090649 -0.11276738 271.12040704 -0.12868247 296.72992507 -0.15199697 C323.81561304 -0.17661019 350.90128483 -0.19031369 377.98698431 -0.19150805 C380.9621948 -0.1916795 383.93740529 -0.19189493 386.91261578 -0.19214249 C388.01145961 -0.19222614 388.01145961 -0.19222614 389.13250232 -0.19231148 C400.90648958 -0.19346071 412.68044771 -0.2044719 424.45442514 -0.21902954 C436.29679696 -0.23341816 448.13912837 -0.23636636 459.98150658 -0.22858956 C466.39341183 -0.22468559 472.80521934 -0.22560045 479.21711254 -0.23964691 C485.09280788 -0.25240078 490.96833219 -0.25117508 496.84402735 -0.2390562 C498.96388715 -0.23710178 501.08375913 -0.24016575 503.20360183 -0.24890056 C514.87643826 -0.29393349 525.66875523 0.21032022 537.01078892 3.13142776 C538.06485886 3.40060981 539.1189288 3.66979185 540.20494026 3.94713092 C553.43437471 7.5484595 565.51491556 16.48588215 575.01078892 26.13142776 C576.1612772 27.28384964 576.1612772 27.28384964 577.33500767 28.45955276 C585.56454418 37.12222277 591.4002494 46.636327 595.44828892 57.81892776 C595.69538609 58.49512161 595.94248325 59.17131546 596.19706821 59.86800003 C599.72350497 70.29644668 599.1534991 81.34017093 599.13383675 92.2140255 C599.13457721 93.84754273 599.13575666 95.48105982 599.13733324 97.11457646 C599.14039552 101.60348434 599.13723275 106.0923695 599.13305511 110.58127568 C599.12961578 115.46470363 599.13199269 120.34812932 599.1336326 125.23155773 C599.13570539 133.79020751 599.13406417 142.34885034 599.12999439 150.90749931 C599.12395959 163.63390053 599.12365857 176.36029736 599.12453638 189.08669975 C599.1258504 210.49448482 599.12250843 231.9022668 599.11651897 253.31005096 C599.11060329 274.5084637 599.1067533 295.70687514 599.10566616 316.9052887 C599.10559742 318.22301709 599.10552868 319.54074548 599.10545786 320.89840503 C599.10518477 326.24711875 599.10493253 331.59583247 599.10470391 336.94454619 C599.10406454 351.89565373 599.10310523 366.84676123 599.10192871 381.79786873 C599.10187539 382.47868416 599.10182208 383.15949959 599.10176714 383.86094579 C599.09914607 416.97291682 599.0928387 450.08488702 599.08622837 483.19685745 C599.0839367 494.68642043 599.08166133 506.17598342 599.07945347 517.66554642 C599.07924804 518.7344326 599.07924804 518.7344326 599.07903847 519.82491245 C599.07269354 552.95596372 599.06896853 586.08701513 599.06591867 619.21806684 C599.06572061 621.36915152 599.06552142 623.52023619 599.06532199 625.67132086 C599.0640022 639.92675799 599.06272756 654.18219512 599.06148313 668.43763225 C599.05900668 696.80203575 599.056265 725.16643922 599.05334109 753.53084268 C599.05320185 754.88160744 599.05306279 756.2323722 599.05292392 757.58313697 C599.04368448 847.43256794 599.02779658 937.28199796 599.01078892 1027.13142776 C540.87632438 1027.19991523 482.74185575 1027.26359588 424.60736179 1027.30080032 C423.74667327 1027.30135255 422.88598475 1027.30190478 421.99921476 1027.30247374 C403.29321682 1027.31444594 384.58721845 1027.32552659 365.88121944 1027.33568908 C356.70753092 1027.34067834 347.53384251 1027.34586457 338.36015415 1027.35115433 C336.99083064 1027.35193888 336.99083064 1027.35193888 335.59384402 1027.35273929 C306.01556697 1027.36977846 276.43732052 1027.39981906 246.859062 1027.43661665 C216.45838348 1027.47436861 186.05772189 1027.49897455 155.65702033 1027.50708773 C151.36112543 1027.50824031 147.06523058 1027.50954286 142.76933575 1027.51093674 C141.923859 1027.51120643 141.07838225 1027.51147612 140.20728499 1027.51175399 C126.60862376 1027.5164771 113.01001495 1027.5350192 99.41137508 1027.5587559 C85.73337175 1027.58233525 72.05542029 1027.59129208 58.37739735 1027.58543327 C50.25540893 1027.5823957 42.13361064 1027.59045931 34.01165662 1027.61461794 C27.93896514 1027.63144347 21.86647627 1027.62724062 15.79376597 1027.61502334 C13.34263531 1027.61333647 10.89148848 1027.6183829 8.44038951 1027.63096049 C-20.13844115 1027.76904687 -42.34835963 1020.49868914 -62.98921108 1000.13142776 C-77.53118253 985.62086446 -85.17178066 964.72887509 -85.25893646 944.48395932 C-85.25496173 943.08122528 -85.25080285 941.67849175 -85.24647999 940.27575874 C-85.24917571 938.76391395 -85.25274487 937.25207051 -85.25710446 935.74022961 C-85.2665483 931.58436941 -85.26356639 927.42859702 -85.25854891 923.27273255 C-85.25528009 918.75186408 -85.26356666 914.23101429 -85.27036726 909.71015179 C-85.28067377 901.78608289 -85.28350993 893.86203843 -85.28145504 885.93796349 C-85.27840675 874.15435016 -85.28672525 862.3707639 -85.29720429 850.58715584 C-85.31655521 828.31714454 -85.32217292 806.04714245 -85.32331841 783.77712373 C-85.3242372 766.57971368 -85.32835233 749.38230725 -85.33471966 732.18489838 C-85.33651472 727.2361279 -85.33829435 722.28735741 -85.34006941 717.33858693 C-85.34051151 716.10833462 -85.34095361 714.87808231 -85.3414091 713.61054963 C-85.35371913 679.00127235 -85.36161006 644.39199632 -85.36072254 609.78271675 C-85.36067581 607.82507697 -85.36067581 607.82507697 -85.36062813 605.82788891 C-85.36046191 599.21301277 -85.36026383 592.59813663 -85.36005871 585.9832605 C-85.36001882 584.66950379 -85.35997893 583.35574708 -85.35993783 582.00217957 C-85.35985696 579.34544256 -85.35977336 576.68870554 -85.35968705 574.03196853 C-85.35846152 532.69694113 -85.37347434 491.36195418 -85.40083218 450.02693558 C-85.43155034 403.59556066 -85.44876483 357.1642073 -85.44690573 310.73282158 C-85.44675647 305.78216497 -85.44665906 300.83150836 -85.4465971 295.88085175 C-85.44657379 294.66185972 -85.44655048 293.44286769 -85.44652647 292.18693652 C-85.44646491 272.56625301 -85.45923919 252.94559798 -85.47646163 233.32492294 C-85.49341172 213.60673715 -85.49539682 193.88859304 -85.48224299 174.170404 C-85.47484966 162.45577139 -85.47852329 150.74126534 -85.49812767 139.02664612 C-85.51012024 131.19917358 -85.50754459 123.37179278 -85.49318667 115.54432446 C-85.48541763 111.08602117 -85.48388931 106.62796296 -85.50010137 102.16967689 C-85.514746 98.10677748 -85.51068558 94.04432537 -85.49225364 89.9814453 C-85.4888356 88.52758638 -85.49198665 87.07369168 -85.50285605 85.61986938 C-85.5947796 72.43227511 -83.11084398 60.29284239 -77.30171108 48.38142776 C-76.79559292 47.32230179 -76.79559292 47.32230179 -76.27925014 46.24177933 C-73.03440573 39.73130925 -68.86810945 34.52389438 -63.98921108 29.13142776 C-63.37046108 28.31802933 -62.75171108 27.50463089 -62.11421108 26.66658401 C-47.27685073 8.96539492 -22.55227335 -0.04797167 0 0 Z " fill="#F7DD69" transform="translate(1237.9892110824585,1078.8685722351074)"/>
</svg>
