<svg xmlns="http://www.w3.org/2000/svg" version="1.0" width="395.000000pt" height="110.000000pt" viewBox="0 0 395.000000 110.000000" preserveAspectRatio="xMidYMid meet">

<g transform="translate(0.000000,110.000000) scale(0.100000,-0.100000)" fill="#ffffff" stroke="none">
<path d="M502 777 c-9 -11 -12 -69 -10 -228 l3 -214 30 0 30 0 3 81 3 81 61 6 c97 9 152 62 152 146 0 92 -49 130 -179 138 -64 4 -83 2 -93 -10z m185 -69 c31 -29 31 -87 1 -123 -17 -19 -36 -27 -75 -32 l-53 -6 0 92 0 91 52 0 c39 0 57 -5 75 -22z" fill="#ffffff"/>
<path d="M2522 782 c-9 -6 -12 -59 -10 -228 l3 -219 93 -3 c71 -2 101 1 128 14 45 22 74 67 74 118 0 31 -7 45 -38 76 l-38 38 23 27 c42 48 23 138 -34 164 -34 16 -183 26 -201 13z m171 -64 c28 -22 32 -69 7 -101 -19 -23 -29 -27 -76 -27 l-54 0 0 70 0 70 53 0 c29 0 61 -6 70 -12z m11 -189 c35 -16 52 -61 37 -98 -16 -37 -48 -51 -116 -51 l-55 0 0 80 0 80 55 0 c30 0 65 -5 79 -11z" fill="#ffffff"/>
<path d="M2907 783 c-4 -3 -7 -107 -7 -230 l0 -223 30 0 30 0 0 230 0 230 -23 0 c-13 0 -27 -3 -30 -7z" fill="#ffffff"/>
<path d="M920 659 c-43 -17 -70 -51 -86 -106 -46 -159 80 -281 221 -213 54 26 77 68 82 149 5 79 -14 123 -66 158 -37 25 -105 30 -151 12z m112 -50 c44 -24 62 -122 32 -185 -28 -59 -113 -69 -154 -17 -15 20 -20 41 -20 89 0 53 4 67 26 93 28 33 75 42 116 20z" fill="#ffffff"/>
<path d="M1194 656 c-3 -7 9 -58 26 -112 74 -232 62 -209 103 -212 l36 -3 16 58 c9 32 24 85 34 118 l17 59 33 -117 34 -117 37 0 37 0 46 148 c57 184 57 186 31 190 -30 4 -37 -9 -74 -140 -18 -65 -36 -116 -40 -113 -4 2 -22 59 -41 125 -25 91 -38 121 -52 126 -29 9 -42 -12 -67 -111 -45 -175 -41 -173 -80 -38 -18 65 -37 126 -42 136 -10 20 -46 23 -54 3z" fill="#ffffff"/>
<path d="M1790 652 c-49 -27 -75 -82 -75 -162 1 -86 22 -125 82 -152 71 -31 193 -11 193 32 0 23 -5 24 -63 8 -83 -22 -135 3 -151 74 l-6 27 112 3 113 3 3 42 c8 110 -107 179 -208 125z m130 -52 c11 -11 20 -31 20 -45 0 -25 -1 -25 -86 -25 -84 0 -85 0 -79 23 20 64 101 91 145 47z" fill="#ffffff"/>
<path d="M2103 663 c-10 -3 -13 -47 -13 -169 l0 -164 30 0 30 0 0 109 c0 103 1 111 26 140 21 25 33 31 65 31 34 0 39 3 39 24 0 43 -62 50 -104 11 -23 -21 -28 -21 -25 1 1 7 -22 24 -31 23 -3 0 -11 -3 -17 -6z" fill="#ffffff"/>
</g>
</svg>