<?xml version="1.0" encoding="UTF-8"?>
<svg version="1.1" xmlns="http://www.w3.org/2000/svg" width="232" height="217">
<path d="M0 0 C76.56 0 153.12 0 232 0 C232 71.61 232 143.22 232 217 C155.44 217 78.88 217 0 217 C0 145.39 0 73.78 0 0 Z " fill="#FEFEFE" transform="translate(0,0)"/>
<path d="M0 0 C6.20168834 2.24526835 11.17059968 5.68609634 16.38671875 9.6796875 C18.51260338 11.40146352 18.51260338 11.40146352 20.63671875 12.38671875 C21.39855469 11.7834375 22.16039063 11.18015625 22.9453125 10.55859375 C38.57020428 -1.53557966 38.57020428 -1.53557966 49.34375 -0.984375 C53.06611383 -0.38194815 54.94106968 0.7552518 57.63671875 3.38671875 C63.49952164 11.88778294 62.35971999 21.99797263 60.63671875 31.69921875 C60.31523889 33.26420056 59.98660684 34.82784233 59.63671875 36.38671875 C60.24257812 36.53367188 60.8484375 36.680625 61.47265625 36.83203125 C72.08042907 39.67165043 80.07823724 44.48162459 86.63671875 53.38671875 C88.43193946 56.97716017 87.70296441 60.61570304 86.63671875 64.38671875 C80.68678672 74.0790718 70.99004899 77.98001634 60.63671875 81.38671875 C60.745 82.26070312 60.745 82.26070312 60.85546875 83.15234375 C63.17575266 103.64818496 63.17575266 103.64818496 58.63671875 112.38671875 C55.14703424 116.47220305 53.20984213 118.17696897 47.88671875 118.88671875 C38.1518798 118.79220575 28.34524281 111.93551604 21.63671875 105.38671875 C18.45099035 106.85929801 15.77026284 108.68114195 12.94921875 110.76171875 C6.28921723 115.43934445 0.0874804 119.23961533 -8.29296875 118.7578125 C-12.55047566 117.99467447 -15.04645796 116.14248314 -17.6171875 112.71484375 C-22.4554488 104.01608824 -21.18653864 91.79947031 -19.36328125 82.38671875 C-20.42546875 81.89042969 -21.48765625 81.39414063 -22.58203125 80.8828125 C-39.85662382 72.6467049 -39.85662382 72.6467049 -45.36328125 64.38671875 C-46.81942396 60.01829061 -47.48593247 56.65403396 -45.3671875 52.375 C-39.91665245 44.26868016 -30.42434809 39.53678289 -21.36328125 36.38671875 C-20.37328125 36.38671875 -19.38328125 36.38671875 -18.36328125 36.38671875 C-18.68683594 35.57976562 -19.01039062 34.7728125 -19.34375 33.94140625 C-20.56500247 29.68339954 -20.69415211 25.91337624 -20.67578125 21.51171875 C-20.69189453 20.74730469 -20.70800781 19.98289062 -20.72460938 19.1953125 C-20.72934491 13.61685619 -19.6914766 9.46994526 -17.36328125 4.38671875 C-12.02165423 -0.6943411 -7.1271055 -1.84951333 0 0 Z " fill="#0DD3AC" transform="translate(104.36328125,40.61328125)"/>
<path d="M0 0 C50.16 0 100.32 0 152 0 C152 45.21 152 90.42 152 137 C101.84 137 51.68 137 0 137 C0 91.79 0 46.58 0 0 Z M39 13 C34.84213001 18.73499309 34.81801576 24.0464865 34.8125 30.875 C34.79413086 32.06029297 34.79413086 32.06029297 34.77539062 33.26953125 C34.7637905 37.91731548 35.22125289 41.62695373 37 46 C35.71802734 46.14501953 35.71802734 46.14501953 34.41015625 46.29296875 C30.60228436 47.0824588 27.83771967 48.43776259 24.4375 50.3125 C23.34308594 50.90675781 22.24867187 51.50101563 21.12109375 52.11328125 C15.81012652 55.32379086 11.93689756 58.45252683 9 64 C8.34412389 69.24700891 9.07313515 72.60970273 12 77 C17.61832066 83.19564183 24.50182132 86.54012612 32 90 C33.33597702 90.66135286 34.67048692 91.32574694 36 92 C35.76216797 93.22783203 35.76216797 93.22783203 35.51953125 94.48046875 C34.20845053 103.3623013 33.23939767 114.22549372 37.74609375 122.328125 C40.29250879 125.72334505 42.77253908 127.43969024 46.89453125 128.4765625 C55.29326268 129.31799385 63.89702928 124.01189411 70.453125 119.19921875 C72.02382255 117.86157185 73.52369739 116.44115254 75 115 C78.1857284 116.47257926 80.86645591 118.2944232 83.6875 120.375 C90.35993861 125.06136085 96.53768775 128.8219797 104.92578125 128.3828125 C108.38867063 127.7437105 110.4153123 126.33852696 113 124 C119.07399473 114.15593958 117.36293599 102.00084053 116 91 C116.83402344 90.72027344 117.66804688 90.44054687 118.52734375 90.15234375 C127.52623652 86.94655263 137.04396894 82.67305435 142 74 C143.28365819 69.46497073 143.55370738 66.20371169 141.5625 61.875 C134.41809103 53.85932164 127.08871174 49.61445972 117 46 C116.34 46 115.68 46 115 46 C115.144375 45.35675781 115.28875 44.71351562 115.4375 44.05078125 C117.58949023 33.57477327 119.00657308 23.55152505 113.40625 13.96875 C110.93480623 10.50872873 109.05096139 9.35948585 104.8828125 8.62890625 C93.57164526 7.74352734 84.20553751 14.99628364 76 22 C75.55011719 21.63648438 75.10023437 21.27296875 74.63671875 20.8984375 C66.41906955 14.4758259 57.77865779 8.55858145 47.02734375 8.71875 C43.6029842 9.19380566 41.57487298 10.78441163 39 13 Z " fill="#FDFEFE" transform="translate(49,31)"/>
<path d="M0 0 C54.78 0 109.56 0 166 0 C166 49.5 166 99 166 150 C111.22 150 56.44 150 0 150 C0 100.5 0 51 0 0 Z M7 7 C7 52.21 7 97.42 7 144 C57.16 144 107.32 144 159 144 C159 98.79 159 53.58 159 7 C108.84 7 58.68 7 7 7 Z " fill="#14D4AE" transform="translate(42,24)"/>
<path d="M0 0 C0 49.5 0 99 0 150 C54.12 150 108.24 150 164 150 C161 155 161 155 159 156 C156.8208411 156.09446302 154.63869375 156.12189947 152.45748901 156.12025452 C151.4381212 156.12153615 151.4381212 156.12153615 150.3981601 156.12284368 C148.11030297 156.12449697 145.8225184 156.11897959 143.53466797 156.11352539 C141.8989258 156.11324346 140.2631835 156.11340137 138.62744141 156.1139679 C134.17727753 156.11425564 129.72714042 156.10836258 125.27698278 156.10139394 C120.62981647 156.09515662 115.98264959 156.0945563 111.33547974 156.09336853 C102.53113093 156.09025633 93.72679449 156.08204444 84.92245114 156.07201904 C74.9008317 156.06085445 64.87921168 156.05534658 54.85758758 156.05032361 C34.23838481 156.03986174 13.61919318 156.02226445 -7 156 C-7.14018299 136.54615222 -7.24597726 117.09240698 -7.31087303 97.6381588 C-7.34180671 88.60511767 -7.38397765 79.57239043 -7.45263672 70.53955078 C-7.51245398 62.6661898 -7.55115271 54.79305614 -7.56453097 46.91947424 C-7.57235093 42.75061948 -7.5907184 38.58241502 -7.63438034 34.41376877 C-7.67515881 30.48855827 -7.68765893 26.56426482 -7.67864609 22.63886261 C-7.68029444 21.19970589 -7.69219962 19.76051798 -7.71523285 18.32154465 C-7.88064293 7.45306195 -7.88064293 7.45306195 -5.65361404 3.77846146 C-1.98287623 0 -1.98287623 0 0 0 Z " fill="#12D4AD" transform="translate(31,36)"/>
<path d="M0 0 C7.81983545 0.22183098 7.81983545 0.22183098 11.07543945 2.35498047 C14.52677136 6.0477727 16.30104283 10.40783773 18.11254883 15.06884766 C18.98459961 16.65826172 18.98459961 16.65826172 19.87426758 18.27978516 C21.26513901 21.41253658 21.15676557 21.96174741 20.11254883 25.06884766 C18.84014833 27.6220381 17.5387744 30.12836816 16.17504883 32.63134766 C15.81475586 33.30359375 15.45446289 33.97583984 15.08325195 34.66845703 C10.65791783 42.87529214 10.65791783 42.87529214 8.27929688 43.71948242 C-10.98917351 46.82631973 -10.98917351 46.82631973 -16.69946289 42.78710938 C-20.06574258 39.04617543 -21.96474335 34.67348639 -23.88745117 30.06884766 C-24.47268555 29.02986328 -25.05791992 27.99087891 -25.66088867 26.92041016 C-27.12372119 23.5195575 -27.14875342 22.51572626 -25.88745117 19.06884766 C-24.52239457 16.27029764 -23.00830491 13.57615342 -21.44995117 10.88134766 C-21.04196289 10.15753906 -20.63397461 9.43373047 -20.21362305 8.68798828 C-15.05118078 -0.36523429 -10.08793561 0.20888449 0 0 Z " fill="#F8FDFC" transform="translate(127.887451171875,76.93115234375)"/>
<path d="M0 0 C54.78 0 109.56 0 166 0 C166 49.5 166 99 166 150 C111.22 150 56.44 150 0 150 C0 149.67 0 149.34 0 149 C54.12 149 108.24 149 164 149 C164 100.49 164 51.98 164 2 C109.88 2 55.76 2 0 2 C0 1.34 0 0.68 0 0 Z " fill="#2CD7B4" transform="translate(42,24)"/>
<path d="M0 0 C1.52102323 0.14383922 3.04180897 0.29019014 4.5625 0.4375 C5.40941406 0.51871094 6.25632812 0.59992188 7.12890625 0.68359375 C8.07636719 0.78800781 9.02382812 0.89242187 10 1 C11.1446875 1.04125 12.289375 1.0825 13.46875 1.125 C18.28655037 2.31879124 20.0124714 4.7231471 22.9375 8.5625 C23.43056641 9.17802734 23.92363281 9.79355469 24.43164062 10.42773438 C25.63793409 11.9385291 26.82134987 13.46754169 28 15 C25.45859943 21.38860363 18.26349867 25.06507566 12.3125 28 C8.22999383 29.23245469 6.03856587 29.44778776 2 28 C-1.90796726 23.87364633 -2.26782943 18.90319932 -2.375 13.4375 C-2.22919885 8.61484652 -1.67964291 4.51404032 0 0 Z " fill="#F8FDFC" transform="translate(92,124)"/>
<path d="M0 0 C4.05685905 9.08231074 6.3683443 15.27390218 3.0234375 24.7734375 C2.07356492 27.21303829 1.07189082 29.61192696 0 32 C-8.34184272 31.62925143 -16.05691424 27.50216245 -21.75 21.4375 C-23.51112761 19.1215663 -23.98379782 18.3402458 -24.125 15.375 C-21.1468305 9.08775327 -16.97772069 6.55266319 -10.9375 3.6875 C-10.21755859 3.32849609 -9.49761719 2.96949219 -8.75585938 2.59960938 C-3.42294643 0 -3.42294643 0 0 0 Z " fill="#FAFDFD" transform="translate(88,83)"/>
<path d="M0 0 C8.47487659 0.24769994 16.16161724 6.99250943 22.0625 12.5 C19.50404613 17.87899327 16.64475361 22.61504586 12.0625 26.5 C6.19966173 28.55382172 0.29341606 29.5 -5.9375 29.5 C-8.09986983 21.39111315 -9.61117636 12.91241949 -6.5625 4.875 C-3.6523289 0.621673 -3.6523289 0.621673 0 0 Z " fill="#F9FDFC" transform="translate(97.9375,45.5)"/>
<path d="M0 0 C2.43235371 9.27334854 3.89390632 18.34155036 -1 27 C-4.55791878 28.77895939 -8.12280134 28.62364652 -12 28 C-17.9930889 25.32242805 -23.13265524 21.35499268 -28 17 C-21.36329056 3.20349072 -21.36329056 3.20349072 -14.7578125 0.83984375 C-9.81978042 0.08402251 -4.98719991 -0.04626345 0 0 Z " fill="#F9FDFC" transform="translate(158,124)"/>
<path d="M0 0 C7.35557275 1.7505956 12.99815714 4.40388409 19 9 C19.845625 9.639375 20.69125 10.27875 21.5625 10.9375 C23 13 23 13 23.75 16.3125 C22.80832809 20.94238688 21.26229559 22.41203384 17.63671875 25.2890625 C5.75342466 33 5.75342466 33 0 33 C-0.81756238 30.93950145 -1.62884734 28.87651147 -2.4375 26.8125 C-2.88996094 25.66394531 -3.34242188 24.51539062 -3.80859375 23.33203125 C-6.14875974 16.78723917 -5.85881565 13.58170099 -3.0625 7.1875 C-2.77181641 6.49462891 -2.48113281 5.80175781 -2.18164062 5.08789062 C-1.46608352 3.38697619 -0.73460121 1.69277669 0 0 Z " fill="#FAFEFD" transform="translate(162,83)"/>
<path d="M0 0 C2.30275556 1.8670991 3.67823871 3.35647741 5 6 C5.09539873 7.48588023 5.13073484 8.97590565 5.1328125 10.46484375 C5.13474609 11.78838867 5.13474609 11.78838867 5.13671875 13.13867188 C5.13285156 14.06228516 5.12898438 14.98589844 5.125 15.9375 C5.13080078 17.31711914 5.13080078 17.31711914 5.13671875 18.72460938 C5.13542969 19.60826172 5.13414062 20.49191406 5.1328125 21.40234375 C5.13168457 22.21179443 5.13055664 23.02124512 5.12939453 23.85522461 C5 26 5 26 4 29 C-11.34770351 29.08996309 -11.34770351 29.08996309 -16.578125 23.97265625 C-19.33752355 20.83723266 -21.72028944 17.49588445 -24 14 C-21.45010098 7.86135421 -15.19648275 3.82061691 -9.3125 1.0625 C-5.8764418 -0.03963188 -3.56819814 -0.55505304 0 0 Z " fill="#FAFDFD" transform="translate(154,46)"/>
<path d="M0 0 C3.15576082 2.07993327 4.34779653 3.30699132 5.75 6.8125 C6.32577311 10.7549464 6.13848382 13.86287288 4.625 17.5625 C1.35377759 21.48796689 -1.63167152 23.51825846 -6.6875 24.4375 C-11.45381698 23.60130404 -14.02745716 21.32634615 -17.25 17.8125 C-19.10110583 14.11028834 -18.71454795 9.85343083 -18.25 5.8125 C-14.01045737 -1.45528737 -7.82093809 -2.85765046 0 0 Z " fill="#0BD3AC" transform="translate(131.25,88.1875)"/>
<path d="M0 0 C4.20626034 1.50223584 5.73900021 4.28550034 8 8 C3.38 8 -1.24 8 -6 8 C-4.21844267 4.43688534 -2.83236991 2.64354525 0 0 Z " fill="#E6F9F4" transform="translate(124,64)"/>
<path d="M0 0 C3.12259437 3.12259437 3.14293342 6.71466712 4 11 C0.7 11.33 -2.6 11.66 -6 12 C-4.43358249 7.69235185 -2.31663844 3.93828536 0 0 Z " fill="#EAFAF6" transform="translate(152,107)"/>
<path d="M0 0 C4.62 0 9.24 0 14 0 C11.03 3.96 11.03 3.96 8 8 C3.61364256 5.80682128 2.48743095 4.08649371 0 0 Z " fill="#F2FCF9" transform="translate(118,127)"/>
<path d="M0 0 C-1.56641751 4.30764815 -3.68336156 8.06171464 -6 12 C-8.83374881 8.79663178 -9.5205537 6.21912747 -10 2 C-3.375 0 -3.375 0 0 0 Z " fill="#ECFAF7" transform="translate(104,79)"/>
<path d="M0 0 C3.49999654 3.17907995 4.98593331 6.76351489 7 11 C3.7 10.67 0.4 10.34 -3 10 C-1.125 1.125 -1.125 1.125 0 0 Z " fill="#EFFBF8" transform="translate(97,108)"/>
<path d="M0 0 C3.3 0.33 6.6 0.66 10 1 C9.01 4.3 8.02 7.6 7 11 C3.49381423 7.49381423 2.11585492 4.45059138 0 0 Z " fill="#F2FCFA" transform="translate(146,80)"/>
<path d="M0 0 C0 3.93169105 -1.39419615 5.16427228 -4 8 C-4.66 8 -5.32 8 -6 8 C-4.73058503 4.08597051 -3.48832306 2.20927127 0 0 Z " fill="#1CD5B0" transform="translate(119,88)"/>
</svg>
