<svg xmlns="http://www.w3.org/2000/svg" version="1.0" width="190.000000pt" height="177.000000pt" viewBox="0 0 190.000000 177.000000" preserveAspectRatio="xMidYMid meet">

<g transform="translate(0.000000,177.000000) scale(0.100000,-0.100000)" fill="#ffffff" stroke="none">
<path d="M1502 1008 l3 -243 23 -3 22 -3 0 245 0 246 -25 0 -25 0 2 -242z" fill="#ffffff"/>
<path d="M300 990 l0 -230 120 0 120 0 0 25 c0 25 0 25 -95 25 l-96 0 3 83 3 82 83 -1 c80 -1 82 -1 82 22 0 23 -2 24 -85 24 l-85 0 0 80 0 80 90 0 c83 0 90 1 90 20 0 19 -7 20 -115 20 l-115 0 0 -230z" fill="#ffffff"/>
<path d="M964 1081 c-110 -50 -124 -238 -22 -301 35 -21 130 -28 157 -11 21 14 23 54 2 45 -9 -4 -37 -9 -63 -12 -42 -3 -51 -1 -77 26 -79 78 -32 226 72 227 23 0 52 -4 65 -8 18 -7 22 -5 22 13 0 41 -86 53 -156 21z" fill="#ffffff"/>
<path d="M1240 1081 c-50 -26 -80 -83 -80 -154 0 -114 48 -167 152 -167 72 0 108 15 108 47 0 23 -1 23 -30 8 -16 -8 -49 -15 -74 -15 -57 0 -94 30 -103 83 l-6 37 117 0 116 0 0 35 c0 113 -103 178 -200 126z m121 -50 c16 -16 29 -39 29 -50 0 -20 -6 -21 -90 -21 -104 0 -113 9 -56 66 43 43 77 44 117 5z" fill="#ffffff"/>
<path d="M624 1008 l55 -81 -54 -79 c-30 -44 -55 -81 -55 -84 0 -2 11 -4 25 -4 21 0 34 13 66 65 23 36 44 65 48 65 3 0 22 -29 41 -63 28 -50 41 -63 63 -65 15 -2 27 -1 27 3 0 3 -22 39 -50 80 -27 41 -50 77 -50 80 0 3 23 39 50 80 28 41 50 77 50 80 0 3 -11 5 -25 5 -20 0 -32 -13 -62 -65 -20 -36 -40 -65 -44 -65 -4 0 -24 29 -44 65 -32 57 -40 65 -66 65 l-29 0 54 -82z" fill="#ffffff"/>
</g>
</svg>