<svg xmlns="http://www.w3.org/2000/svg" version="1.0" width="320.000000pt" height="205.000000pt" viewBox="0 0 320.000000 205.000000" preserveAspectRatio="xMidYMid meet">

<g transform="translate(0.000000,205.000000) scale(0.100000,-0.100000)" fill="#ffffff" stroke="none">
<path d="M350 1135 c0 -363 -4 -582 -11 -614 -13 -62 -53 -119 -118 -168 l-50 -37 36 -45 c20 -25 38 -48 40 -50 1 -2 27 9 58 23 108 53 189 157 214 274 7 36 11 238 11 617 l0 565 -90 0 -90 0 0 -565z" fill="#ffffff"/>
<path d="M895 1396 c-106 -22 -175 -48 -175 -66 0 -14 18 -79 25 -88 1 -1 37 7 81 18 104 27 232 29 276 3 54 -32 68 -61 71 -143 l2 -75 -115 -6 c-249 -14 -374 -99 -387 -262 -7 -81 10 -139 53 -187 47 -52 110 -75 204 -75 81 0 157 27 228 81 18 14 36 24 38 21 3 -3 8 -24 11 -46 l6 -41 69 0 70 0 -4 343 -3 342 -27 57 c-45 96 -137 139 -291 137 -40 -1 -99 -6 -132 -13z m283 -563 l3 -101 -33 -26 c-55 -42 -119 -66 -176 -66 -46 0 -57 4 -89 34 -33 30 -37 39 -40 92 -3 47 0 66 17 92 33 53 126 82 255 78 l60 -1 3 -102z" fill="#ffffff"/>
<path d="M2515 1396 c-33 -7 -86 -21 -118 -31 l-59 -19 7 -46 c4 -25 10 -48 14 -53 4 -4 43 2 87 13 104 27 233 28 276 3 53 -31 70 -64 76 -146 l4 -74 -118 -6 c-198 -9 -315 -61 -365 -164 -31 -63 -34 -189 -5 -242 73 -136 276 -160 439 -50 66 43 77 41 77 -18 l0 -33 70 0 70 0 0 314 c0 172 -5 338 -10 367 -14 77 -53 128 -123 163 -51 26 -72 30 -160 32 -58 2 -128 -2 -162 -10z m283 -560 c2 -88 1 -101 -18 -121 -65 -70 -221 -96 -274 -46 -48 45 -59 139 -23 195 31 47 130 75 252 72 l60 -1 3 -99z" fill="#ffffff"/>
<path d="M1509 1238 c26 -84 85 -278 132 -431 l84 -277 109 2 110 3 39 90 c78 181 192 565 213 718 l7 47 -90 0 -89 0 -13 -91 c-22 -158 -140 -589 -161 -589 -3 0 -14 33 -23 73 -10 39 -55 192 -100 339 l-82 268 -91 0 -92 0 47 -152z" fill="#ffffff"/>
</g>
</svg>