<svg xmlns="http://www.w3.org/2000/svg" version="1.0" width="180.000000pt" height="100.000000pt" viewBox="0 0 180.000000 100.000000" preserveAspectRatio="xMidYMid meet">

<g transform="translate(0.000000,100.000000) scale(0.100000,-0.100000)" fill="#ffffff" stroke="none">
<path d="M1206 928 c-9 -12 -16 -28 -16 -35 0 -7 -4 -13 -10 -13 -5 0 -10 -7 -10 -15 0 -8 5 -15 10 -15 6 0 10 -27 10 -60 0 -47 3 -60 15 -60 12 0 15 13 15 59 0 51 3 59 21 64 23 6 17 27 -7 27 -22 0 -17 41 6 47 26 7 26 23 1 23 -11 0 -27 -10 -35 -22z" fill="#ffffff"/>
<path d="M170 836 c0 -64 4 -106 10 -106 6 0 10 30 10 70 0 39 3 70 8 70 4 0 20 -32 36 -70 17 -39 35 -70 40 -70 6 0 24 32 40 70 17 39 33 70 38 70 4 0 8 -31 8 -70 0 -40 4 -70 10 -70 6 0 10 42 10 106 0 92 -2 105 -16 102 -10 -2 -31 -34 -49 -76 -18 -40 -36 -73 -40 -73 -4 0 -22 33 -39 73 -19 44 -39 74 -49 76 -15 3 -17 -8 -17 -102z" fill="#ffffff"/>
<path d="M430 924 c0 -9 5 -14 12 -12 18 6 21 28 4 28 -9 0 -16 -7 -16 -16z" fill="#ffffff"/>
<path d="M1293 901 c-3 -12 -9 -21 -14 -21 -5 0 -9 -7 -9 -15 0 -8 5 -15 10 -15 6 0 10 -24 10 -53 0 -29 5 -58 12 -65 17 -17 48 -15 48 3 0 8 -7 15 -15 15 -11 0 -15 12 -15 50 0 38 4 50 15 50 8 0 15 7 15 15 0 8 -7 15 -15 15 -8 0 -15 6 -15 14 0 24 -21 30 -27 7z" fill="#ffffff"/>
<path d="M1400 903 c-11 -2 -16 -15 -16 -38 0 -35 10 -46 19 -22 4 9 8 8 16 -3 10 -13 12 -13 21 0 23 35 -1 72 -40 63z m36 -50 c-11 -11 -19 6 -11 24 8 17 8 17 12 0 3 -10 2 -21 -1 -24z" fill="#ffffff"/>
<path d="M430 806 c0 -62 3 -76 15 -76 13 0 15 12 13 72 -2 46 -7 73 -15 76 -10 3 -13 -16 -13 -72z" fill="#ffffff"/>
<path d="M515 856 c-51 -51 -15 -142 54 -134 36 4 39 28 4 28 -36 0 -53 16 -53 50 0 34 17 50 53 50 36 0 31 24 -6 28 -18 2 -35 -5 -52 -22z" fill="#ffffff"/>
<path d="M640 807 c0 -45 4 -77 10 -77 6 0 10 18 10 39 0 53 8 71 38 82 18 7 22 13 15 20 -8 8 -17 8 -30 0 -14 -7 -23 -7 -31 1 -9 9 -12 -7 -12 -65z" fill="#ffffff"/>
<path d="M750 862 c-19 -15 -25 -29 -25 -62 0 -73 70 -106 120 -55 28 27 34 79 12 108 -20 28 -78 33 -107 9z m85 -62 c0 -42 -2 -45 -28 -48 -36 -4 -57 13 -57 47 0 36 19 53 55 49 28 -3 30 -5 30 -48z" fill="#ffffff"/>
<path d="M906 859 c-18 -27 -7 -54 30 -71 37 -17 30 -38 -12 -38 -31 0 -35 -2 -24 -15 17 -21 54 -19 74 4 23 25 14 51 -24 73 -45 26 -39 44 14 38 11 -1 17 3 14 12 -8 23 -54 21 -72 -3z" fill="#ffffff"/>
<path d="M1036 859 c-67 -53 -2 -164 79 -133 25 10 47 62 40 95 -13 56 -72 75 -119 38z m83 -23 c16 -19 10 -66 -10 -79 -9 -5 -28 -7 -42 -3 -23 5 -27 12 -27 45 0 21 3 41 7 44 12 12 60 7 72 -7z" fill="#ffffff"/>
<path d="M170 389 l0 -270 33 3 32 3 0 213 c0 116 3 212 6 212 3 0 68 -97 145 -215 l139 -215 42 0 43 0 0 270 0 270 -35 0 -35 0 -2 -221 -3 -221 -140 221 -140 221 -42 0 -43 0 0 -271z" fill="#ffffff"/>
<path d="M720 390 l0 -270 145 0 145 0 0 30 0 30 -110 0 -110 0 0 90 0 89 98 3 97 3 3 28 3 27 -100 0 -101 0 0 90 0 90 105 0 105 0 0 30 0 30 -140 0 -140 0 0 -270z" fill="#ffffff"/>
<path d="M1070 630 l0 -30 80 0 80 0 0 -240 0 -240 30 0 30 0 0 240 0 240 80 0 80 0 0 30 0 30 -190 0 -190 0 0 -30z" fill="#ffffff"/>
<path d="M16 187 c-26 -19 -18 -71 12 -75 47 -7 69 40 34 71 -22 20 -23 20 -46 4z" fill="#ffffff"/>
</g>
</svg>