<svg id="SvgjsSvg1001" width="288" height="288" xmlns="http://www.w3.org/2000/svg" version="1.1" xmlns:xlink="http://www.w3.org/1999/xlink" xmlns:svgjs="http://svgjs.com/svgjs"><defs id="SvgjsDefs1002"></defs><g id="SvgjsG1008"><svg xmlns="http://www.w3.org/2000/svg" viewBox="0 0 1200 719" width="288" height="288"><path d="M0 0 C74.91 0 149.82 0 227 0 C227 6.27 227 12.54 227 19 C159.35 19 91.7 19 22 19 C22 62.89 22 106.78 22 152 C85.69 152 149.38 152 215 152 C215 158.27 215 164.54 215 171 C151.31 171 87.62 171 22 171 C22 219.51 22 268.02 22 318 C90.31 318 158.62 318 229 318 C229 323.94 229 329.88 229 336 C153.43 336 77.86 336 0 336 C0 225.12 0 114.24 0 0 Z " transform="translate(283 189)" fill="#ffffff" class="svgShape color000000-0 selectable"></path><path d="M0 0 C0 3.70214613 -0.91624743 4.71418807 -3 7.75 C-3.72574219 8.8121875 -4.45148438 9.874375 -5.19921875 10.96875 C-6.13186621 12.31315696 -7.0655781 13.65682575 -8 15 C-8.58475098 15.84304687 -9.16950195 16.68609375 -9.77197266 17.5546875 C-13.19174193 22.48371149 -16.61891001 27.40752072 -20.05078125 32.328125 C-23.21882773 36.87302719 -26.36843912 41.42990655 -29.5 46 C-34.66181087 53.52998533 -39.87996016 61.02038972 -45.09765625 68.51171875 C-48.91571524 73.9961033 -52.72152283 79.48827642 -56.5 85 C-61.66198464 92.5298675 -66.87995897 100.02038802 -72.09765625 107.51171875 C-75.91571524 112.9961033 -79.72152283 118.48827642 -83.5 124 C-88.66198464 131.5298675 -93.87995897 139.02038802 -99.09765625 146.51171875 C-102.91571524 151.9961033 -106.72152283 157.48827642 -110.5 163 C-115.66198464 170.5298675 -120.87995897 178.02038802 -126.09765625 185.51171875 C-129.91571524 190.9961033 -133.72152283 196.48827642 -137.5 202 C-142.66198464 209.5298675 -147.87995897 217.02038802 -153.09765625 224.51171875 C-156.91571524 229.9961033 -160.72152283 235.48827642 -164.5 241 C-169.66198464 248.5298675 -174.87995897 256.02038802 -180.09765625 263.51171875 C-183.91571524 268.9961033 -187.72152283 274.48827642 -191.5 280 C-196.66049117 287.52768896 -201.87674362 295.01619282 -207.09326172 302.50512695 C-210.95595213 308.05321317 -214.80391672 313.61068678 -218.625 319.1875 C-223.50282137 326.3064067 -228.44918478 333.37662341 -233.40673828 340.44018555 C-233.97505371 341.25011963 -234.54336914 342.06005371 -235.12890625 342.89453125 C-235.63494385 343.61487549 -236.14098145 344.33521973 -236.66235352 345.07739258 C-239.21075461 348.20311399 -239.21075461 348.20311399 -239.77807617 351.95874023 C-238.94069137 354.15559442 -237.94300634 355.7672383 -236.55078125 357.66015625 C-236.03942627 358.36172852 -235.52807129 359.06330078 -235.0012207 359.78613281 C-234.44394287 360.53733398 -233.88666504 361.28853516 -233.3125 362.0625 C-232.7352417 362.85108398 -232.1579834 363.63966797 -231.56323242 364.45214844 C-229.71538603 366.97300204 -227.85853419 369.48701835 -226 372 C-224.7914256 373.6391452 -223.5830892 375.27846591 -222.375 376.91796875 C-220.59263206 379.33602681 -218.80976401 381.75370379 -217.02490234 384.16992188 C-212.8076016 389.88391174 -208.65837374 395.64211268 -204.54296875 401.4296875 C-197.0657213 411.94225322 -189.47881132 422.37468214 -181.8125 432.75 C-176.99714943 439.26724298 -172.24135556 445.82113274 -167.546875 452.42578125 C-162.96009787 458.87525511 -158.30666647 465.27707393 -153.66894531 471.68994141 C-152.03481701 473.95180829 -150.4036287 476.21576308 -148.7734375 478.48046875 C-143.11985222 486.33066449 -137.43100847 494.15279555 -131.6875 501.9375 C-130.80759399 503.13125244 -130.80759399 503.13125244 -129.90991211 504.34912109 C-127.39366841 507.76154649 -124.87405784 511.17120888 -122.33984375 514.5703125 C-121.60894531 515.55773437 -120.87804687 516.54515625 -120.125 517.5625 C-119.50882813 518.38878906 -118.89265625 519.21507812 -118.2578125 520.06640625 C-117 522 -117 522 -117 524 C-138.69142147 526.50767878 -138.69142147 526.50767878 -145.19970703 522.71972656 C-148.91826591 519.19819814 -151.2865574 514.82585716 -153.68261719 510.34375 C-155.92270214 506.35842466 -158.7072387 502.78326929 -161.4375 499.125 C-162.53311207 497.60905262 -163.62555114 496.09080711 -164.71484375 494.5703125 C-167.96898404 490.04138425 -171.23355029 485.52005482 -174.5 481 C-175.58338088 479.50003434 -176.6667142 478.00003433 -177.75 476.5 C-178.554375 475.38625 -178.554375 475.38625 -179.375 474.25 C-184.25 467.5 -184.25 467.5 -185.87475586 465.25024414 C-186.95878416 463.7493445 -188.04293142 462.24853078 -189.12719727 460.74780273 C-191.82587655 457.01226033 -194.52251312 453.27527746 -197.21484375 449.53515625 C-202.76804624 441.82537027 -208.35437205 434.14242369 -214 426.5 C-220.18262062 418.13065531 -226.29008771 409.70942292 -232.36914062 401.26464844 C-235.72483065 396.60486091 -239.08512714 391.94837269 -242.45263672 387.29711914 C-244.82618143 384.01806237 -247.19294217 380.73561043 -249.5234375 377.42578125 C-250.23757813 376.41902344 -250.95171875 375.41226562 -251.6875 374.375 C-252.28949219 373.51648438 -252.89148438 372.65796875 -253.51171875 371.7734375 C-254.00285156 371.18820312 -254.49398437 370.60296875 -255 370 C-255.66 370 -256.32 370 -257 370 C-258.50392853 371.90476898 -259.88286741 373.81181816 -261.25 375.8125 C-262.15343634 377.10652539 -263.058472 378.39943521 -263.96484375 379.69140625 C-264.4532373 380.3889502 -264.94163086 381.08649414 -265.44482422 381.80517578 C-268.17743644 385.66171956 -270.99864242 389.45255627 -273.8125 393.25 C-280.61247492 402.44947768 -287.31775405 411.7148098 -294 421 C-301.20063208 431.00550398 -308.44250786 440.97688478 -315.76708984 450.89208984 C-321.90919634 459.21502749 -327.95790683 467.60432215 -334 476 C-345.17086634 491.52226893 -345.17086634 491.52226893 -350.6484375 498.96875 C-351.25405518 499.79342773 -351.85967285 500.61810547 -352.48364258 501.46777344 C-353.69363745 503.10177532 -354.91471599 504.72763302 -356.1472168 506.34472656 C-358.67020036 509.67516269 -361.04310882 512.81132639 -362.74609375 516.640625 C-364.44602657 520.08464474 -365.93644679 521.69960652 -369 524 C-371.97753906 524.59570312 -371.97753906 524.59570312 -375.265625 524.65625 C-376.4422168 524.68114502 -377.61880859 524.70604004 -378.83105469 524.73168945 C-384.23547331 524.66659764 -389.61161183 524.41623785 -395 524 C-391.95899737 518.39268784 -388.44699426 513.35041656 -384.625 508.25 C-383.36841928 506.55864598 -382.11191089 504.86723822 -380.85546875 503.17578125 C-379.89519775 501.88728271 -379.89519775 501.88728271 -378.91552734 500.57275391 C-375.91054083 496.53674219 -372.92297348 492.48795714 -369.9375 488.4375 C-369.35822754 487.65213867 -368.77895508 486.86677734 -368.18212891 486.05761719 C-363.71308399 479.98989969 -359.2967812 473.88538693 -354.89428711 467.76928711 C-350.38568587 461.5137479 -345.81319395 455.30681654 -341.23046875 449.10546875 C-337.28584489 443.76142179 -333.38041885 438.39081451 -329.5 433 C-322.15996467 422.80643537 -314.69545394 412.70598373 -307.22949219 402.60449219 C-300.35970339 393.3069481 -293.53207552 383.98292184 -286.78222656 374.59790039 C-281.29384584 366.98577703 -275.65976654 359.48516872 -270 352 C-273.96687254 345.44546558 -278.23498803 339.27981496 -282.96118164 333.25 C-286.38101524 328.86243302 -289.62110028 324.36843704 -292.8125 319.8125 C-296.97922771 313.86491877 -301.17963907 307.94526447 -305.4375 302.0625 C-305.97737549 301.31653564 -306.51725098 300.57057129 -307.07348633 299.80200195 C-308.16838044 298.28986573 -309.26351422 296.77790301 -310.35888672 295.26611328 C-313.07648173 291.513552 -315.78794473 287.75656581 -318.5 284 C-319.58330362 282.49997854 -320.66663696 280.99997854 -321.75 279.5 C-328.25 270.5 -334.75 261.5 -341.25 252.5 C-341.7864917 251.75717773 -342.3229834 251.01435547 -342.87573242 250.24902344 C-343.95667191 248.75231299 -345.03756401 247.25556832 -346.1184082 245.75878906 C-348.8629754 241.95817363 -351.60841966 238.15819702 -354.35546875 234.359375 C-359.64762252 227.03938661 -364.93284188 219.71506571 -370.17016602 212.35571289 C-372.59889589 208.94716909 -375.04698394 205.55342816 -377.5078125 202.16796875 C-378.10722656 201.34232422 -378.70664062 200.51667969 -379.32421875 199.66601562 C-380.5097157 198.03435008 -381.69716614 196.40410179 -382.88671875 194.77539062 C-383.42167969 194.03869141 -383.95664062 193.30199219 -384.5078125 192.54296875 C-384.98879395 191.88321045 -385.46977539 191.22345215 -385.96533203 190.54370117 C-387 189 -387 189 -387 188 C-365.40300548 185.17069941 -365.40300548 185.17069941 -358.70214844 189.4765625 C-354.70637081 193.541341 -352.07306883 198.45764073 -349.41552734 203.45996094 C-347.12823222 207.56431045 -344.31005968 211.24356867 -341.5 215 C-340.41780258 216.49278723 -339.33837765 217.98758825 -338.26171875 219.484375 C-336.05698797 222.53718117 -333.85113417 225.58917179 -331.64453125 228.640625 C-326.34317769 235.97333833 -321.05344563 243.31361844 -315.80126953 250.68164062 C-310.23725805 258.48061546 -304.61413768 266.23708119 -299 274 C-286.51054477 291.26972732 -286.51054477 291.26972732 -281 299 C-277.09973446 304.47018881 -273.18021745 309.92628944 -269.25 315.375 C-268.71890625 316.11234375 -268.1878125 316.8496875 -267.640625 317.609375 C-264.52975832 321.91792536 -261.36196209 326.16774917 -258.09277344 330.35791016 C-257 332 -257 332 -257 334 C-252.57393011 329.86240766 -249.10591364 325.27684705 -245.5625 320.375 C-244.31525153 318.66525707 -243.06785144 316.95562474 -241.8203125 315.24609375 C-241.18641602 314.37452637 -240.55251953 313.50295898 -239.89941406 312.60498047 C-237.50682954 309.32363383 -235.09356126 306.05788096 -232.67895508 302.79272461 C-227.53196098 295.83169109 -222.43005861 288.84055963 -217.375 281.8125 C-212.84829464 275.52140061 -208.2496836 269.2913639 -203.58496094 263.10205078 C-197.92397558 255.5867322 -192.35539278 248.00388079 -186.78222656 240.42333984 C-183.85769254 236.44677482 -180.92864567 232.47353729 -178 228.5 C-176.83331112 226.91668304 -175.66664447 225.33334969 -174.5 223.75 C-172.16666667 220.58333333 -169.83333333 217.41666667 -167.5 214.25 C-166.63362915 213.07401245 -166.63362915 213.07401245 -165.74975586 211.87426758 C-164.58441381 210.29299907 -163.41856185 208.71210622 -162.25219727 207.1315918 C-159.31094176 203.14461132 -156.37917964 199.15124035 -153.46484375 195.14453125 C-146.90563303 186.14658151 -140.1664591 177.36634847 -133.08984375 168.76953125 C-130.13351803 165.17753562 -127.24210862 161.53844227 -124.375 157.875 C-123.92874268 157.30483154 -123.48248535 156.73466309 -123.02270508 156.1472168 C-122.12904021 155.00434598 -121.23572824 153.86119913 -120.34277344 152.71777344 C-118.06766067 149.80728372 -115.7833163 146.90405504 -113.5 144 C-112.58329022 142.83336721 -111.66662352 141.66670056 -110.75 140.5 C-105.25 133.5 -99.75 126.5 -94.25 119.5 C-93.79633057 118.92258057 -93.34266113 118.34516113 -92.87524414 117.75024414 C-91.95784991 116.5826959 -91.04036933 115.41521551 -90.12280273 114.24780273 C-87.84155755 111.3451721 -85.56178786 108.44140726 -83.28515625 105.53515625 C-78.05509493 98.86231939 -72.786497 92.22245764 -67.48291016 85.60791016 C-62.73497767 79.6810536 -58.04193285 73.71206408 -53.35888672 67.73388672 C-51.07546697 64.82033173 -48.78749197 61.91035807 -46.5 59 C-45.58331177 57.83335027 -44.6666451 56.66668361 -43.75 55.5 C-38.25 48.5 -32.75 41.5 -27.25 34.5 C-26.56901245 33.6332666 -26.56901245 33.6332666 -25.87426758 32.74902344 C-24.96009985 31.58556677 -24.04587484 30.42215511 -23.1315918 29.25878906 C-20.801213 26.29338101 -18.47191885 23.32713143 -16.14453125 20.359375 C-10.79824099 13.54434382 -5.4281606 6.75020545 0 0 Z " transform="translate(916 1)" fill="#ffffff" class="svgShape color000000-1 selectable"></path><path d="M0 0 C27 0 27 0 32.7734375 4.61328125 C34.65454102 7.76977539 34.65454102 7.76977539 36.375 11.3125 C37.07963136 12.55529884 37.79621147 13.79138185 38.52319336 15.02124023 C39.71692659 17.04863025 40.898461 19.07862328 42.045578 21.13282776 C47.02322213 30.03843311 52.87570763 38.35437153 58.644104 46.75912476 C61.83158465 51.41702873 64.97939789 56.10153036 68.12890625 60.78515625 C68.73365784 61.68329544 69.33840942 62.58143463 69.96148682 63.50679016 C75.34863964 71.50932179 80.70033936 79.53490921 86.03979492 87.56933594 C93.10257788 98.18339753 100.24061841 108.74648268 107.375 119.3125 C116.00652937 132.0958764 124.61662778 144.89217176 133.15515137 157.737854 C141.55654819 170.37342445 150.04841297 182.94757629 158.53955078 195.52294922 C166.40899178 207.17861164 174.25184934 218.85019832 182.03564453 230.56323242 C189.1415713 241.24175673 196.32256408 251.86945834 203.5 262.5 C211.36355121 274.14675096 219.22209578 285.79583062 227 297.5 C234.73636915 309.14159643 242.55309006 320.72825337 250.375 332.3125 C259.00652937 345.0958764 267.61662778 357.89217176 276.15515137 370.737854 C284.55654819 383.37342445 293.04841297 395.94757629 301.53955078 408.52294922 C309.41046981 420.18080079 317.25474495 431.85461501 325.04003906 443.56982422 C331.47360115 453.2379151 337.96984335 462.86337115 344.46813965 472.48803711 C363.40797035 500.54192628 363.40797035 500.54192628 371.44610596 512.55307007 C372.30812385 513.84020567 373.17134449 515.12653667 374.03582764 516.41201782 C375.20952635 518.15788093 376.37882554 519.90660419 377.546875 521.65625 C378.19495117 522.62369141 378.84302734 523.59113281 379.51074219 524.58789062 C381 527 381 527 382 530 C381.34 530 380.68 530 380 530 C378.74169922 528.58911133 378.74169922 528.58911133 377.3046875 526.58203125 C376.49076538 525.45873413 376.49076538 525.45873413 375.66040039 524.31274414 C375.07121826 523.48766357 374.48203613 522.66258301 373.875 521.8125 C372.60183325 520.05615046 371.32703377 518.30098355 370.05078125 516.546875 C369.3851416 515.63099609 368.71950195 514.71511719 368.03369141 513.77148438 C364.76941395 509.32297565 361.41792341 504.94243946 358.0625 500.5625 C352.21291184 492.91493464 346.41294716 485.23272907 340.64697266 477.52197266 C336.11306117 471.46605574 331.5328879 465.44685341 326.9375 459.4375 C321.30604398 452.06994964 315.7674287 444.64169737 310.28662109 437.16162109 C305.28237321 430.34741636 300.16672152 423.6218666 295.03125 416.90625 C289.86125366 410.14242049 284.74531019 403.33990756 279.64697266 396.52197266 C275.11306064 390.46605503 270.53282665 384.44690084 265.9375 378.4375 C260.21527336 370.94974358 254.57406081 363.40825808 249.00537109 355.80566406 C246.35878815 352.1938745 243.70287367 348.592309 240.98828125 345.03125 C233.9725258 335.82482257 227.40512355 326.36538543 220.921875 316.77734375 C216.99984588 310.98165257 213.00677008 305.23730922 209 299.5 C202.42328277 290.0736119 195.9290176 280.59365703 189.46484375 271.08984375 C185.09659201 264.66763788 180.69447286 258.26896454 176.28857422 251.87255859 C175.00426266 250.0061945 173.72244649 248.13814195 172.44140625 246.26953125 C167.07709343 238.44825057 161.67368889 230.655233 156.25 222.875 C149.59268788 213.32182831 143.01338386 203.71779831 136.46484375 194.08984375 C132.09659201 187.66763788 127.69447286 181.26896454 123.28857422 174.87255859 C122.00426266 173.0061945 120.72244649 171.13814195 119.44140625 169.26953125 C114.07709343 161.44825057 108.67368889 153.655233 103.25 145.875 C96.59268788 136.32182831 90.01338386 126.71779831 83.46484375 117.08984375 C79.09659201 110.66763788 74.69447286 104.26896454 70.28857422 97.87255859 C69.00426266 96.0061945 67.72244649 94.13814195 66.44140625 92.26953125 C61.07709335 84.44825045 55.67367632 76.6552419 50.25 68.875 C41.04570746 55.66649301 31.92628852 42.39824359 23 29 C22.99739563 29.81717556 22.99739563 29.81717556 22.99473864 30.65085971 C22.89106768 63.14511015 22.78282757 95.63934185 22.66888306 128.13355779 C22.65511817 132.06006706 22.64139037 135.98657646 22.62768555 139.91308594 C22.62495724 140.69458181 22.62222894 141.47607769 22.61941796 142.28125526 C22.5756843 154.83350153 22.53493606 167.38575573 22.49534739 179.93801568 C22.45447084 192.87687235 22.41025582 205.81571471 22.36312145 218.7545501 C22.33682861 225.99716749 22.31195409 233.2397833 22.29092598 240.48241806 C22.19767505 272.3332033 21.94363499 304.16162914 21 336 C14.07 336 7.14 336 0 336 C0 225.12 0 114.24 0 0 Z " transform="translate(1 189)" fill="#ffffff" class="svgShape color000000-2 selectable"></path><path d="M0 0 C85.47 0 170.94 0 259 0 C259 6.27 259 12.54 259 19 C219.73 19 180.46 19 140 19 C140 123.61 140 228.22 140 336 C132.74 336 125.48 336 118 336 C118 231.39 118 126.78 118 19 C79.06 19 40.12 19 0 19 C0 12.73 0 6.46 0 0 Z " transform="translate(807 189)" fill="#ffffff" class="svgShape color000000-3 selectable"></path><path d="M0 0 C4.42728964 3.64180277 6.48741695 6.72816111 7.25 12.4375 C7.4046875 14.2628125 7.4046875 14.2628125 7.5625 16.125 C3.6025 16.125 -0.3575 16.125 -4.4375 16.125 C-4.953125 15.031875 -5.46875 13.93875 -6 12.8125 C-8.37850029 8.68976616 -10.81004982 7.43611088 -15.4375 6.125 C-21.71960033 5.42698885 -26.17980872 6.53246281 -31.4375 10.125 C-32.85791821 12.96583641 -32.75202272 14.97977278 -32.4375 18.125 C-29.555575 21.74447926 -26.90123983 22.90636252 -22.5 24.125 C-21.3553125 24.455 -20.210625 24.785 -19.03125 25.125 C-17.8453125 25.455 -16.659375 25.785 -15.4375 26.125 C1.97655588 31.05641406 1.97655588 31.05641406 7.5625 39.125 C9.5934276 45.21778281 9.67605753 52.58751391 7 58.5 C3.11301868 65.01441818 -2.18003614 68.79072075 -9.50390625 70.65234375 C-19.53753245 72.26894664 -29.35567388 72.01399699 -38.4375 67.125 C-41.4375 64.625 -41.4375 64.625 -43.4375 62.125 C-44.2728125 61.25875 -44.2728125 61.25875 -45.125 60.375 C-47.18964719 56.83560482 -47.67051846 53.13690343 -48.4375 49.125 C-44.1475 49.125 -39.8575 49.125 -35.4375 49.125 C-35.1075 50.0325 -34.7775 50.94 -34.4375 51.875 C-31.79936677 56.1619665 -29.20772738 57.68828177 -24.4375 59.125 C-18.30987837 60.07667499 -13.51224535 59.22097506 -8.03125 56.390625 C-6.07028283 54.83338637 -5.3297631 53.45029171 -4.4375 51.125 C-4.59556161 47.96376786 -5.11431743 46.50970838 -7.15722656 44.07788086 C-9.72224934 41.88113384 -11.54489216 41.21659772 -14.796875 40.37890625 C-15.83070312 40.09853516 -16.86453125 39.81816406 -17.9296875 39.52929688 C-19.00476562 39.25150391 -20.07984375 38.97371094 -21.1875 38.6875 C-29.92412447 36.42894441 -37.59005056 34.26840709 -43.875 27.5 C-46.62939732 21.5505018 -47.4279907 15.11061803 -45.3125 8.8125 C-42.25348397 2.13455876 -38.30193285 -1.46035991 -31.55859375 -4.12890625 C-20.96907019 -7.85376629 -9.19422469 -6.5216804 0 0 Z " transform="translate(1190.438 431.875)" fill="#ffffff" class="svgShape color000000-4 selectable"></path><path d="M0 0 C4.29 0 8.58 0 13 0 C13.07447304 7.64971823 13.12875537 15.29922271 13.16479492 22.94921875 C13.17982831 25.54854003 13.20026046 28.14783617 13.22631836 30.74707031 C13.26294101 34.49550605 13.27978152 38.24360472 13.29296875 41.9921875 C13.30845261 43.14363251 13.32393646 44.29507751 13.33988953 45.48141479 C13.34180075 54.76273815 12.42323479 63.63932994 5.71484375 70.59375 C0.21309993 75.10543058 -6.04038844 75.55854203 -12.96875 75.33984375 C-19.72443348 74.58244109 -25.11954692 72.5997197 -29.5625 67.3125 C-32.46672099 62.96843987 -32.83876571 59.15949719 -33 54 C-29.04 54 -25.08 54 -21 54 C-20.566875 54.94875 -20.13375 55.8975 -19.6875 56.875 C-18.20697799 60.20041937 -18.20697799 60.20041937 -15 62 C-12.89125815 62.42770472 -12.89125815 62.42770472 -10.625 62.4375 C-9.87476563 62.47746094 -9.12453125 62.51742187 -8.3515625 62.55859375 C-5.65072774 61.91703333 -3.99515414 60.9012395 -2.07714844 58.89213562 C0.42217978 54.50177699 -0.27716642 48.94923865 -0.29296875 44.04296875 C-0.27784744 42.78486893 -0.26272614 41.5267691 -0.24714661 40.23054504 C-0.21148744 36.89784173 -0.19711139 33.56643734 -0.19311523 30.23364258 C-0.18376945 26.82811989 -0.14634715 23.42291646 -0.11132812 20.01757812 C-0.04839797 13.34498547 -0.01612337 6.67286332 0 0 Z " transform="translate(1116 428)" fill="#ffffff" class="svgShape color000000-5 selectable"></path><path d="M0 0 C2.81972931 2.36493426 2.97850831 3.8280665 3.4375 7.5 C3 11 3 11 1.4375 13.4375 C-1.91852406 15.58879747 -4.08421671 15.48947291 -8 15 C-10.375 13.9375 -10.375 13.9375 -12 12 C-12.87281149 8.57109774 -13.32922829 6.10740423 -12.3125 2.6875 C-8.86456992 -1.74555296 -5.18817694 -1.32062686 0 0 Z " transform="translate(1068 487)" fill="#ffffff" class="svgShape color000000-6 selectable"></path></svg></g></svg>