<svg xmlns="http://www.w3.org/2000/svg" version="1.0" width="900.000000pt" height="212.000000pt" viewBox="0 0 900.000000 212.000000" preserveAspectRatio="xMidYMid meet">

<g transform="translate(0.000000,212.000000) scale(0.100000,-0.100000)" fill="#ffffff" stroke="none">
<path d="M3951 1583 c-21 -10 -50 -41 -76 -82 -175 -273 -276 -433 -433 -679 l-181 -282 122 0 122 0 150 240 c83 132 182 289 220 350 39 60 87 137 109 171 l38 62 18 -29 c10 -16 73 -117 139 -224 l120 -195 -265 -5 -264 -5 59 -92 60 -93 273 0 273 0 53 -90 53 -90 121 0 120 0 -14 22 c-21 34 -142 223 -400 627 -128 200 -245 373 -260 384 -37 27 -114 32 -157 10z" fill="#ffffff"/>
<path d="M8534 1589 c-94 -26 -112 -161 -29 -215 39 -25 122 -14 151 20 80 92 -5 228 -122 195z m83 -39 c52 -32 54 -108 4 -147 -9 -7 -33 -13 -54 -13 -117 -1 -114 175 3 179 8 1 29 -8 47 -19z" fill="#ffffff"/>
<path d="M8527 1543 c-4 -3 -7 -35 -7 -70 0 -49 3 -63 15 -63 9 0 15 9 15 25 0 14 5 25 10 25 6 0 16 -11 22 -25 12 -26 38 -34 38 -12 0 7 -5 18 -12 25 -9 9 -9 15 0 24 18 18 14 56 -7 68 -22 11 -64 13 -74 3z m63 -38 c0 -8 -9 -15 -20 -15 -11 0 -20 7 -20 15 0 8 9 15 20 15 11 0 20 -7 20 -15z" fill="#ffffff"/>
<path d="M660 1575 c-266 -72 -431 -319 -392 -588 30 -207 184 -378 388 -431 91 -23 777 -23 868 0 174 45 312 176 372 354 25 74 25 223 0 305 -47 157 -172 287 -334 348 -54 20 -76 21 -452 24 -323 2 -405 0 -450 -12z m860 -206 c138 -65 217 -215 191 -362 -21 -119 -114 -226 -226 -262 -45 -14 -101 -16 -416 -13 -363 3 -364 3 -414 27 -66 33 -131 100 -163 169 -23 48 -27 70 -26 137 2 148 74 254 213 312 56 23 58 23 421 21 l365 -3 55 -26z" fill="#ffffff"/>
<path d="M2020 1065 l0 -525 105 0 105 0 0 430 0 430 345 0 c375 0 388 -2 438 -55 73 -79 49 -213 -47 -259 -29 -14 -78 -16 -336 -16 -183 0 -300 -4 -298 -9 2 -5 135 -125 296 -266 l292 -256 147 3 147 3 -197 165 -197 165 89 6 c154 10 257 77 320 209 22 47 26 68 26 145 -1 78 -4 98 -29 147 -35 73 -100 139 -174 175 l-57 28 -487 3 -488 3 0 -526z" fill="#ffffff"/>
<path d="M5078 1574 c-129 -31 -245 -114 -320 -228 -98 -152 -106 -361 -20 -531 34 -68 153 -185 222 -218 111 -53 145 -57 520 -57 l345 1 55 86 c30 48 57 90 58 95 2 4 -174 8 -392 8 -464 0 -467 0 -567 99 -165 162 -120 436 89 538 l57 28 340 3 341 3 54 86 c30 47 57 90 58 95 2 4 -173 8 -390 7 -298 0 -407 -4 -450 -15z" fill="#ffffff"/>
<path d="M6030 1098 c0 -452 2 -495 18 -514 35 -44 41 -44 534 -44 l473 0 55 87 c30 48 57 91 58 95 2 4 -208 8 -466 8 l-470 0 0 383 c-1 210 -1 403 -1 430 l-1 47 -100 0 -100 0 0 -492z" fill="#ffffff"/>
<path d="M7520 1574 c-90 -24 -158 -63 -231 -131 -103 -97 -155 -206 -166 -342 -7 -94 21 -215 69 -299 42 -75 129 -159 204 -199 110 -59 154 -64 535 -61 l342 3 53 84 c30 47 54 88 54 93 0 4 -175 8 -390 8 -432 0 -443 1 -532 66 -45 33 -99 106 -113 152 l-6 22 429 0 429 0 57 89 c31 49 56 91 56 95 0 3 -219 6 -486 6 l-485 0 6 23 c11 36 66 113 104 143 19 15 60 38 90 51 54 22 65 23 383 23 l327 0 39 58 c21 31 48 74 61 95 l23 37 -399 -1 c-315 0 -409 -3 -453 -15z" fill="#ffffff"/>
</g>
</svg>