<svg xmlns="http://www.w3.org/2000/svg" version="1.0" width="4096.000000pt" height="1457.000000pt" viewBox="0 0 4096.000000 1457.000000" preserveAspectRatio="xMidYMid meet">

<g transform="translate(0.000000,1457.000000) scale(0.100000,-0.100000)" fill="#ffffff" stroke="none">
<path d="M18665 13789 c-242 -77 -484 -153 -537 -170 l-98 -30 0 -5069 0 -5070 550 0 550 0 0 2545 0 2546 203 133 c477 314 878 507 1250 602 318 80 631 74 867 -17 442 -170 759 -668 830 -1304 6 -57 10 -895 10 -2297 l0 -2208 550 0 551 0 -4 2403 c-3 2680 2 2483 -73 2777 -170 667 -666 1196 -1282 1371 -189 53 -316 70 -557 76 -781 18 -1524 -208 -2220 -676 l-120 -80 -3 2304 c-2 1834 -5 2305 -15 2304 -6 0 -210 -63 -452 -140z" fill="#ffffff"/>
<path d="M38430 12300 l0 -70 228 -2 227 -3 3 -602 2 -603 90 0 90 0 0 605 0 605 230 0 230 0 0 70 0 70 -550 0 -550 0 0 -70z" fill="#ffffff"/>
<path d="M39710 11695 l0 -675 75 0 75 0 0 552 c0 303 3 548 8 544 4 -4 86 -251 182 -549 l176 -542 89 -3 90 -3 185 548 185 548 3 -548 2 -547 90 0 90 0 0 675 0 675 -118 0 -118 0 -198 -567 c-109 -313 -202 -572 -207 -577 -9 -10 -9 -9 -206 652 l-147 492 -128 0 -128 0 0 -675z" fill="#ffffff"/>
<path d="M14938 12067 l-538 -192 0 -917 0 -918 -375 0 -375 0 0 -345 0 -345 375 0 374 0 4 -2277 c3 -2013 6 -2288 19 -2363 69 -372 187 -610 417 -841 267 -266 595 -419 1054 -491 144 -22 618 -37 762 -23 l75 7 0 282 0 283 -97 7 c-300 21 -567 91 -742 194 -162 97 -291 280 -346 492 -51 192 -48 73 -52 2483 l-4 2247 621 0 620 0 0 345 0 345 -620 0 -620 0 0 1110 c0 611 -3 1110 -7 1109 -5 -1 -250 -87 -545 -192z" fill="#ffffff"/>
<path d="M2725 10189 c-708 -47 -1333 -210 -1870 -488 -308 -159 -505 -300 -712 -507 l-143 -143 0 -4328 0 -4328 543 -193 c298 -106 545 -193 549 -192 5 0 9 875 10 1944 l3 1943 110 -64 c421 -247 883 -423 1295 -492 380 -65 814 -50 1175 38 505 124 937 402 1273 820 393 488 631 1079 721 1791 96 751 12 1663 -211 2320 -171 502 -411 910 -722 1228 -177 181 -347 307 -551 410 -288 145 -541 208 -955 237 -230 16 -325 17 -515 4z m352 -735 c918 -136 1383 -1061 1383 -2749 0 -777 -117 -1387 -348 -1817 -227 -425 -567 -685 -1016 -778 -541 -111 -1139 35 -1861 457 l-135 78 3 2155 2 2155 70 53 c130 98 471 250 771 342 157 49 385 94 564 113 107 11 470 6 567 -9z" fill="#ffffff"/>
<path d="M7745 10111 c-137 -48 -379 -131 -538 -185 l-287 -99 3 -2411 c4 -2644 -1 -2430 61 -2659 96 -349 309 -661 631 -920 330 -266 671 -418 1085 -484 155 -24 607 -24 860 1 603 59 1168 199 1677 417 54 23 113 48 132 56 l33 14 -5 -453 c-7 -668 -49 -1042 -149 -1358 -137 -430 -493 -767 -1038 -983 -284 -113 -662 -198 -1299 -291 -128 -19 -236 -37 -238 -40 -3 -3 34 -158 83 -345 l89 -339 65 4 c36 2 133 9 215 14 829 59 1642 315 2220 701 265 176 484 391 636 621 275 418 413 1102 449 2223 6 184 10 1559 10 3378 l0 3067 -550 0 -550 0 0 -2689 0 -2689 -77 -49 c-454 -290 -893 -464 -1306 -518 -136 -17 -431 -20 -557 -5 -411 50 -738 198 -991 450 -199 196 -312 416 -371 721 l-22 114 -3 2413 c-2 1326 -7 2412 -11 2411 -4 0 -119 -40 -257 -88z" fill="#ffffff"/>
<path d="M27140 10193 c-745 -58 -1398 -380 -1877 -926 -212 -242 -361 -463 -498 -742 -192 -391 -299 -785 -346 -1275 -15 -154 -15 -641 0 -810 81 -917 362 -1627 878 -2222 482 -556 1152 -866 1933 -897 657 -25 1194 96 1668 378 219 129 437 310 608 501 546 613 843 1350 914 2269 15 202 13 621 -6 812 -68 721 -304 1320 -730 1859 -110 138 -374 395 -516 501 -430 321 -901 499 -1458 549 -106 9 -464 11 -570 3z m465 -759 c749 -98 1274 -629 1510 -1529 85 -322 118 -622 118 -1065 0 -852 -124 -1509 -374 -1979 -251 -471 -620 -745 -1124 -832 -168 -30 -479 -33 -620 -7 -430 80 -751 302 -1011 698 -283 433 -455 1021 -504 1730 -13 188 -13 646 0 825 96 1307 625 2024 1595 2159 180 26 218 25 410 0z" fill="#ffffff"/>
<path d="M34150 10186 c-390 -39 -894 -143 -1211 -252 -430 -147 -946 -425 -1421 -764 l-88 -63 0 -2828 0 -2829 545 0 545 0 0 2759 0 2760 33 24 c75 57 262 165 402 233 402 195 843 284 1258 254 329 -23 577 -101 809 -256 316 -210 510 -515 595 -934 16 -79 17 -264 20 -2462 l3 -2378 550 0 550 0 0 2544 c0 1715 -3 2578 -11 2647 -39 390 -188 686 -487 970 -322 306 -741 489 -1292 564 -158 22 -622 28 -800 11z" fill="#ffffff"/>
</g>
</svg>