<svg xmlns="http://www.w3.org/2000/svg" version="1.0" width="695.000000pt" height="233.000000pt" viewBox="0 0 695.000000 233.000000" preserveAspectRatio="xMidYMid meet">

<g transform="translate(0.000000,233.000000) scale(0.100000,-0.100000)" fill="#ffffff" stroke="none">
<path d="M2066 1889 c-21 -17 -26 -29 -26 -65 0 -40 -2 -44 -25 -44 -18 0 -25 -5 -25 -20 0 -15 7 -20 25 -20 l25 0 0 -115 c0 -108 1 -115 20 -115 19 0 20 7 20 115 0 119 0 118 43 118 10 0 17 7 17 18 0 14 -7 19 -30 19 -27 0 -30 3 -30 34 0 40 25 70 51 63 14 -4 19 0 19 14 0 26 -49 25 -84 -2z" fill="#ffffff"/>
<path d="M614 1885 c-10 -24 12 -42 34 -29 24 16 21 38 -6 42 -13 2 -25 -3 -28 -13z" fill="#ffffff"/>
<path d="M130 1700 c0 -183 1 -190 20 -190 18 0 20 8 22 155 l3 155 70 -155 c38 -85 74 -154 80 -152 5 2 42 72 80 156 l70 153 3 -156 c2 -148 4 -156 22 -156 19 0 20 7 20 190 l0 190 -24 0 c-31 0 -32 -2 -106 -165 -35 -77 -64 -141 -65 -142 -1 -2 -32 67 -70 152 -65 148 -69 155 -96 155 l-29 0 0 -190z" fill="#ffffff"/>
<path d="M2238 1852 c-13 -3 -18 -13 -18 -38 0 -30 -3 -34 -25 -34 -18 0 -25 -5 -25 -18 0 -13 7 -18 23 -18 21 1 22 -3 25 -99 3 -117 15 -138 71 -133 26 2 37 8 39 22 3 14 0 17 -13 12 -9 -3 -25 -1 -36 4 -17 9 -19 22 -19 100 l0 89 32 3 c22 2 34 9 36 21 3 13 -4 17 -32 17 -33 0 -35 2 -38 38 -2 29 -7 37 -20 34z" fill="#ffffff"/>
<path d="M2404 1828 c-22 -10 -44 -47 -44 -72 0 -7 9 -25 21 -40 16 -20 29 -26 59 -26 30 0 43 6 59 26 12 15 21 36 20 48 -1 17 -2 15 -9 -7 -13 -43 -29 -57 -64 -57 -40 0 -63 17 -71 52 -5 21 -1 33 19 52 30 31 55 33 90 5 17 -13 24 -15 20 -6 -5 15 -47 37 -67 36 -7 0 -22 -5 -33 -11z" fill="#ffffff"/>
<path d="M2411 1763 c1 -27 4 -38 6 -25 2 12 8 22 12 22 5 0 16 -10 24 -22 9 -13 16 -18 16 -11 1 6 -4 15 -9 18 -8 5 -7 11 1 21 17 20 3 44 -26 44 -23 0 -25 -3 -24 -47z m47 20 c2 -8 -5 -13 -17 -13 -12 0 -21 6 -21 16 0 18 31 15 38 -3z" fill="#ffffff"/>
<path d="M804 1771 c-48 -22 -74 -68 -74 -131 0 -81 49 -130 129 -130 52 0 71 8 71 31 0 22 0 22 -36 9 -83 -32 -153 65 -109 150 24 47 79 64 126 40 16 -9 19 -7 19 13 0 19 -7 26 -31 31 -44 9 -49 8 -95 -13z" fill="#ffffff"/>
<path d="M1253 1779 c-102 -30 -123 -186 -33 -247 29 -20 44 -23 87 -20 59 5 88 25 109 75 27 63 9 147 -38 176 -31 21 -86 28 -125 16z m102 -52 c53 -45 39 -155 -22 -178 -67 -25 -123 22 -123 103 0 39 5 54 25 73 32 33 84 33 120 2z" fill="#ffffff"/>
<path d="M1543 1779 c-57 -16 -81 -77 -45 -113 9 -10 35 -28 57 -40 43 -23 54 -48 34 -72 -13 -16 -50 -15 -91 1 -14 5 -18 2 -18 -13 0 -54 147 -37 165 19 13 40 -3 68 -55 94 -60 30 -77 56 -53 80 13 13 27 16 60 11 33 -4 43 -2 43 9 0 25 -49 37 -97 24z" fill="#ffffff"/>
<path d="M1783 1779 c-100 -30 -122 -187 -33 -247 29 -20 44 -23 88 -20 43 4 59 11 85 36 26 26 31 40 34 89 2 35 -1 68 -9 82 -28 53 -101 79 -165 60z m106 -48 c38 -38 39 -116 2 -162 -28 -35 -95 -33 -127 4 -38 45 -30 129 15 164 25 20 88 16 110 -6z" fill="#ffffff"/>
<path d="M1000 1645 c0 -128 1 -135 20 -135 18 0 20 7 20 79 0 43 5 92 10 108 12 32 50 56 75 47 10 -4 15 0 15 15 0 32 -52 29 -79 -5 l-21 -27 0 27 c0 19 -5 26 -20 26 -19 0 -20 -7 -20 -135z" fill="#ffffff"/>
<path d="M620 1645 c0 -108 1 -115 20 -115 19 0 20 7 20 115 0 108 -1 115 -20 115 -19 0 -20 -7 -20 -115z" fill="#ffffff"/>
<path d="M305 1397 c-101 -34 -163 -89 -195 -174 -57 -152 5 -257 240 -403 136 -85 174 -119 196 -176 20 -53 13 -102 -22 -144 -33 -38 -51 -48 -113 -60 -67 -12 -144 1 -242 43 l-79 35 0 -73 0 -73 48 -15 c178 -57 328 -47 442 31 75 51 110 119 110 211 -1 125 -53 192 -248 313 -126 78 -205 148 -216 191 -10 41 12 107 48 143 62 62 210 69 333 14 l43 -19 0 69 0 69 -37 12 c-57 18 -260 21 -308 6z" fill="#ffffff"/>
<path d="M1170 1394 c-131 -35 -214 -93 -281 -197 -66 -102 -84 -172 -84 -327 0 -101 5 -150 19 -195 58 -191 165 -289 373 -340 94 -23 99 -26 159 -86 34 -33 81 -85 105 -115 l44 -53 95 -1 95 0 -123 123 c-67 67 -122 125 -122 129 0 3 17 12 38 19 119 38 216 127 277 254 41 85 55 155 55 275 0 173 -51 309 -149 403 -66 63 -113 89 -198 111 -76 20 -229 20 -303 0z m266 -109 c163 -48 245 -185 247 -410 1 -212 -63 -334 -213 -404 -49 -23 -67 -26 -165 -26 -97 0 -116 3 -158 24 -56 29 -136 110 -166 168 -11 23 -25 63 -32 90 -16 73 -13 233 6 300 34 115 127 220 228 254 64 23 185 24 253 4z" fill="#ffffff"/>
<path d="M3081 1395 c-135 -38 -215 -139 -215 -270 0 -111 63 -186 254 -305 131 -82 164 -110 191 -162 39 -75 15 -152 -60 -196 -39 -23 -57 -27 -121 -26 -62 1 -91 7 -164 37 -50 20 -94 34 -98 31 -4 -3 -8 -34 -8 -69 l0 -64 68 -22 c102 -32 233 -37 319 -11 132 41 202 115 210 226 13 157 -26 210 -277 368 -58 37 -117 79 -132 95 -94 98 -48 235 89 263 67 14 169 1 240 -30 l43 -19 0 68 0 68 -37 12 c-60 20 -239 24 -302 6z" fill="#ffffff"/>
<path d="M1990 871 l0 -528 285 1 285 1 0 63 0 62 -220 0 -220 0 0 465 0 465 -65 0 -65 0 0 -529z" fill="#ffffff"/>
<path d="M6890 1103 c45 -24 59 -62 36 -98 -15 -22 -23 -26 -59 -23 -37 3 -44 7 -60 38 -12 24 -15 27 -11 10 11 -41 34 -60 74 -60 95 0 108 126 15 145 -30 7 -30 7 5 -12z" fill="#ffffff"/>
<path d="M3810 1101 c-91 -28 -183 -112 -228 -209 -25 -52 -27 -67 -27 -182 0 -117 2 -129 29 -188 34 -74 86 -124 170 -163 105 -49 228 -48 361 3 l55 21 0 59 0 58 -37 -19 c-62 -31 -143 -51 -208 -51 -111 0 -191 58 -230 169 -30 87 -50 81 256 81 l272 0 -5 103 c-6 120 -25 171 -84 237 -58 64 -121 90 -219 89 -44 0 -91 -4 -105 -8z m164 -115 c45 -19 83 -61 101 -115 29 -86 41 -81 -185 -81 -110 0 -200 4 -200 9 0 23 33 98 57 129 48 63 151 90 227 58z" fill="#ffffff"/>
<path d="M4645 1101 c-55 -14 -101 -51 -142 -117 -10 -16 -12 -9 -12 44 l-1 62 -65 0 -65 0 0 -375 0 -375 64 0 64 0 4 243 c4 265 7 281 67 350 35 40 107 72 140 63 67 -19 61 -23 61 48 l0 66 -42 -1 c-24 -1 -56 -4 -73 -8z" fill="#ffffff"/>
<path d="M5753 1081 c-78 -37 -137 -98 -177 -181 -30 -62 -31 -71 -31 -190 0 -106 4 -132 22 -172 49 -108 134 -175 259 -204 59 -13 80 -14 144 -4 41 7 101 22 134 34 l58 22 2 58 c1 65 8 63 -93 21 -176 -74 -324 -24 -380 128 -35 95 -56 87 250 87 l272 0 -5 104 c-4 93 -8 112 -37 171 -24 49 -45 76 -78 98 -64 46 -97 55 -193 56 -74 1 -93 -3 -147 -28z m232 -105 c45 -24 81 -80 91 -144 l7 -42 -202 0 c-122 0 -201 4 -201 10 0 5 9 33 20 63 26 68 75 116 137 132 57 15 93 10 148 -19z" fill="#ffffff"/>
<path d="M6616 1096 c-42 -16 -102 -69 -112 -98 -11 -36 -24 -17 -24 37 l0 55 -65 0 -65 0 0 -370 0 -370 64 0 64 0 5 233 c5 260 10 284 70 353 48 54 99 73 156 56 21 -7 40 -12 42 -12 2 0 3 28 2 62 l-1 63 -49 2 c-26 2 -65 -4 -87 -11z" fill="#ffffff"/>
<path d="M6815 1090 c-10 -11 -16 -22 -14 -24 2 -2 12 7 22 20 22 29 17 32 -8 4z" fill="#ffffff"/>
<path d="M4815 1073 c3 -10 46 -124 95 -253 49 -129 111 -289 138 -355 l48 -120 64 0 64 0 54 130 c29 72 98 239 152 373 l98 242 -66 0 -67 0 -49 -133 c-54 -143 -177 -460 -181 -465 -2 -3 -115 300 -175 476 l-43 122 -69 0 c-63 0 -69 -2 -63 -17z" fill="#ffffff"/>
<path d="M6841 1043 c1 -26 3 -40 6 -30 6 21 22 22 38 1 9 -13 11 -8 11 27 -1 40 -3 44 -28 47 -27 3 -28 2 -27 -45z m47 19 c2 -7 -5 -12 -17 -12 -14 0 -19 5 -14 15 6 17 25 15 31 -3z" fill="#ffffff"/>
</g>
</svg>